<svg id="Layer_1" data-name="Layer 1" xmlns="http://www.w3.org/2000/svg" viewBox="0 0 43.575 44.381"><defs><style>.cls-1{fill:#fff;}</style></defs><title>gdpr_icon</title><path class="cls-1" d="M22.3,35.207l1.139-.89-1.148-.9a3.043,3.043,0,0,1-.746-3.909l2.166-3.746a3.029,3.029,0,0,1,2.639-1.542,3.064,3.064,0,0,1,1.13.217l1.346.541.2-1.391a3.034,3.034,0,0,1,3.013-2.646h3.106c.037-.531.069-1.063.069-1.6V10.467A3.793,3.793,0,0,0,32.965,7.01L19.743,1.135a3.759,3.759,0,0,0-3.06,0L3.46,7.01a3.792,3.792,0,0,0-2.247,3.457v8.877c0,10.484,7.253,20.287,17,22.667a19.843,19.843,0,0,0,4.117-1.529l-.786-1.359-.03-.053A3.046,3.046,0,0,1,22.3,35.207Zm-6.542-5.87a1.882,1.882,0,0,1-2.663,0L8.2,24.444a1.883,1.883,0,0,1,2.664-2.663l3.57,3.551L25.542,14.226a1.883,1.883,0,0,1,2.663,2.663Z" transform="translate(-1.213 -0.81)"/><path class="cls-1" d="M42.292,35.382a7.507,7.507,0,0,0,0-2.131l2.294-1.794a.549.549,0,0,0,.131-.7L42.542,27a.494.494,0,0,0-.181-.182q-.027-.017-.054-.03a.578.578,0,0,0-.234-.059h-.006a.546.546,0,0,0-.188.032l-2.708,1.088a7.943,7.943,0,0,0-1.837-1.066L36.92,23.9a.53.53,0,0,0-.532-.457h-4.35a.531.531,0,0,0-.533.457l-.413,2.881a8.387,8.387,0,0,0-1.838,1.066l-2.707-1.088a.557.557,0,0,0-.2-.037l-.015,0a.522.522,0,0,0-.223.06.579.579,0,0,0-.054.031.524.524,0,0,0-.176.183l-2.175,3.762a.536.536,0,0,0,.13.7l2.3,1.794a7.507,7.507,0,0,0,0,2.131l-2.3,1.794a.549.549,0,0,0-.13.7l.791,1.37,1.384,2.393a.5.5,0,0,0,.181.181.468.468,0,0,0,.054.03.558.558,0,0,0,.233.059l.007,0a.572.572,0,0,0,.188-.033l2.707-1.088a7.97,7.97,0,0,0,1.838,1.066l.413,2.882a.53.53,0,0,0,.533.456h4.35a.529.529,0,0,0,.532-.456l.414-2.882a8.318,8.318,0,0,0,1.837-1.066l2.708,1.088a.547.547,0,0,0,.194.037l.016,0a.53.53,0,0,0,.223-.06.407.407,0,0,0,.053-.031.515.515,0,0,0,.177-.182l2.175-3.763a.549.549,0,0,0-.131-.7Zm-8.079,2.74a3.793,3.793,0,0,1-2.258-6.852,3.771,3.771,0,0,1,2.258-.759,3.806,3.806,0,1,1,0,7.611Z" transform="translate(-1.213 -0.81)"/></svg>