<svg width="39" height="33" xmlns="http://www.w3.org/2000/svg"><g id="Page-1" stroke="none" stroke-width="1" fill="none" fill-rule="evenodd"><g id="suosikkialert-copy-3"><path d="M38.003 28.352l-9.5-15.863a2.911 2.911 0 0 0-4.943 0l-9.492 15.862a2.734 2.734 0 0 0-.014 2.787 2.826 2.826 0 0 0 2.479 1.467h18.993a2.837 2.837 0 0 0 2.486-1.467 2.74 2.74 0 0 0-.01-2.786z" id="Path" fill="#D2432E"/><path d="M13.903 23.819L4.22 12.485a6.494 6.494 0 0 1-1.287-3.9A6.263 6.263 0 0 1 9.05 2.2a6.189 6.189 0 0 1 5.874 4.596 1.1 1.1 0 0 0 1.038.806l.3.006c.501.006.944-.324 1.08-.806a6.189 6.189 0 0 1 5.874-4.595 6.262 6.262 0 0 1 6.117 6.383c0 .44-.043.88-.129 1.31a1.1 1.1 0 1 0 2.158.429c.113-.573.17-1.155.171-1.739A8.463 8.463 0 0 0 23.216.006a8.31 8.31 0 0 0-7.083 4.085A8.312 8.312 0 0 0 9.05 0 8.463 8.463 0 0 0 .733 8.584c0 .584.057 1.166.17 1.74.56 2.816 2.696 4.822 4.5 6.934l5.242 6.135 1.585 1.856a1.1 1.1 0 0 0 1.673-1.43z" id="Path" fill="#001E43"/><path id="Rectangle" fill="#FFF" d="M24.955 27.25h2.128v2.127h-2.128zm0-9.688h2.128v8.586h-2.128z"/></g></g></svg>