<?xml version="1.0" encoding="UTF-8"?>
<svg width="30px" height="30px" viewBox="0 0 30 30" version="1.1" xmlns="http://www.w3.org/2000/svg" xmlns:xlink="http://www.w3.org/1999/xlink">
    <!-- Generator: Sketch 49.2 (51160) - http://www.bohemiancoding.com/sketch -->
    <title>Group 48</title>
    <desc>Created with Sketch.</desc>
    <defs></defs>
    <g id="Page-1" stroke="none" stroke-width="1" fill="none" fill-rule="evenodd">
        <g id="Group-48" fill="#FFFFFF">
            <g id="Instagram-Copy">
                <path d="M0,15 C0,6.71572834 6.71572834,0 15,0 C23.2842717,0 30,6.71572834 30,15 C30,23.2842717 23.2842717,30 15,30 C6.71572834,30 0,23.2842717 0,15 Z M15.00075,7 C12.8280607,7 12.5553912,7.0095001 11.702049,7.04833384 C10.8503734,7.08733424 10.2690341,7.22216898 9.76036209,7.42000438 C9.23418994,7.62433984 8.78785196,7.89767602 8.34318066,8.34251398 C7.89817602,8.78718528 7.62483984,9.23352327 7.41983771,9.75952875 C7.22150231,10.2683674 7.0865009,10.8498734 7.04816717,11.7012156 C7.0100001,12.5545579 7,12.827394 7,15.0000833 C7,17.1727726 7.00966677,17.4446088 7.04833384,18.297951 C7.08750091,19.1496266 7.22233565,19.7309659 7.42000438,20.2396379 C7.62450651,20.7658101 7.89784269,21.212148 8.34268065,21.6568193 C8.78718528,22.101824 9.23352327,22.3758268 9.75936208,22.5801623 C10.2683674,22.7779977 10.8498734,22.9128324 11.7013823,22.9518328 C12.5547245,22.9906666 12.8272274,23.0001667 14.99975,23.0001667 C17.172606,23.0001667 17.4444421,22.9906666 18.2977844,22.9518328 C19.1494599,22.9128324 19.731466,22.7779977 20.2404713,22.5801623 C20.7664767,22.3758268 21.212148,22.101824 21.6566527,21.6568193 C22.1016573,21.212148 22.3749935,20.7658101 22.5799956,20.2398046 C22.7766643,19.7309659 22.9116657,19.1494599 22.9516662,18.2981177 C22.9899999,17.4447755 23,17.1727726 23,15.0000833 C23,12.827394 22.9899999,12.5547245 22.9516662,11.7013823 C22.9116657,10.8497068 22.7766643,10.2683674 22.5799956,9.75969541 C22.3749935,9.23352327 22.1016573,8.78718528 21.6566527,8.34251398 C21.211648,7.89750935 20.7666434,7.62417317 20.2399712,7.42000438 C19.7299659,7.22216898 19.1482932,7.08733424 18.2966177,7.04833384 C17.4432755,7.0095001 17.171606,7 14.99825,7 L15.00075,7 Z" id="Combined-Shape"></path>
                <path d="M14.2830759,8.44168168 C14.4960781,8.44134835 14.7337472,8.44168168 15.00075,8.44168168 C17.1367723,8.44168168 17.3899416,8.44934843 18.2334503,8.48768216 C19.0134585,8.5233492 19.4367962,8.65368389 19.7187992,8.76318503 C20.0921364,8.90818654 20.3583058,9.08152168 20.6381421,9.3615246 C20.918145,9.64152752 21.0914801,9.90819696 21.236815,10.2815342 C21.3463161,10.5632038 21.4768175,10.9865415 21.5123178,11.7665497 C21.5506516,12.6098918 21.558985,12.8632277 21.558985,14.99825 C21.558985,17.1332722 21.5506516,17.3866082 21.5123178,18.2299503 C21.4766508,19.0099584 21.3463161,19.4332962 21.236815,19.7149658 C21.0918135,20.088303 20.918145,20.3541391 20.6381421,20.6339754 C20.3581391,20.9139783 20.092303,21.0873134 19.7187992,21.2323149 C19.4371296,21.3423161 19.0134585,21.4723174 18.2334503,21.5079845 C17.3901082,21.5463182 17.1367723,21.5546516 15.00075,21.5546516 C12.8645611,21.5546516 12.6113918,21.5463182 11.7680497,21.5079845 C10.9880415,21.4719841 10.5647038,21.3416494 10.2825342,21.2321483 C9.90919697,21.0871467 9.64252753,20.9138116 9.36252461,20.6338087 C9.08252169,20.3538058 8.90918655,20.087803 8.76385171,19.7142991 C8.65435057,19.4326295 8.52384921,19.0092918 8.48834884,18.2292836 C8.4500151,17.3859415 8.44234836,17.1326055 8.44234836,14.99625 C8.44234836,12.8598944 8.4500151,12.6078917 8.48834884,11.7645496 C8.52401588,10.9845415 8.65435057,10.5612038 8.76385171,10.2792008 C8.90885322,9.9058636 9.08252169,9.63919416 9.36252461,9.35919124 C9.64252753,9.07918832 9.90919697,8.90585319 10.2825342,8.76051834 C10.5645371,8.65051719 10.9880415,8.52051584 11.7680497,8.48468213 C12.5060574,8.45134845 12.7920603,8.44134835 14.2830759,8.43968166 L14.2830759,8.44168168 Z M19.2711278,9.77002885 C18.7411223,9.77002885 18.3111178,10.1995333 18.3111178,10.7297055 C18.3111178,11.259711 18.7411223,11.6897155 19.2711278,11.6897155 C19.8011333,11.6897155 20.2311378,11.259711 20.2311378,10.7297055 C20.2311378,10.1997 19.8011333,9.76969552 19.2711278,9.76969552 L19.2711278,9.77002885 Z M15.00075,10.8917072 C12.731893,10.8917072 10.8923739,12.7312264 10.8923739,15.0000833 C10.8923739,17.2689403 12.731893,19.1076261 15.00075,19.1076261 C17.269607,19.1076261 19.1084595,17.2689403 19.1084595,15.0000833 C19.1084595,12.7312264 17.2694403,10.8917072 15.0005833,10.8917072 L15.00075,10.8917072 Z" id="Combined-Shape"></path>
                <path d="M15.00075,12.3333889 C16.473432,12.3333889 17.6674445,13.5272347 17.6674445,15.0000833 C17.6674445,16.4727653 16.473432,17.6667778 15.00075,17.6667778 C13.5279013,17.6667778 12.3340556,16.4727653 12.3340556,15.0000833 C12.3340556,13.5272347 13.5279013,12.3333889 15.00075,12.3333889 L15.00075,12.3333889 Z" id="Shape"></path>
            </g>
        </g>
    </g>
</svg>