<svg width="15" height="18" xmlns="http://www.w3.org/2000/svg"><g id="Page-1" stroke="none" stroke-width="1" fill="none" fill-rule="evenodd"><g id="Group-52" transform="translate(0 1)"><g id="Group-14-Copy-2" transform="translate(1)" stroke="#CCC" stroke-linecap="round" stroke-linejoin="round" stroke-width="2"><path d="M6.095 0c3.367 0 6.095 2.666 6.095 5.954a5.84 5.84 0 0 1-1.207 3.557" id="Stroke-350"/><path d="M8 5.953a1.905 1.905 0 1 1-3.81 0 1.905 1.905 0 0 1 3.81 0h0z" id="Stroke-352"/><path d="M6.095 16l4.888-6.49" id="Stroke-354"/><path d="M6.095 0C2.73 0 0 2.666 0 5.954 0 7.287.45 8.518 1.207 9.51" id="Stroke-356"/><path d="M6.095 16L1.207 9.51" id="Stroke-358"/></g><path id="Rectangle-30" d="M0 0h16v16H0z"/></g></g></svg>