<?xml version="1.0" encoding="UTF-8"?>
<svg width="30px" height="30px" viewBox="0 0 30 30" version="1.1" xmlns="http://www.w3.org/2000/svg" xmlns:xlink="http://www.w3.org/1999/xlink">
    <!-- Generator: Sketch 49.2 (51160) - http://www.bohemiancoding.com/sketch -->
    <title>Group 51</title>
    <desc>Created with Sketch.</desc>
    <defs></defs>
    <g id="Page-1" stroke="none" stroke-width="1" fill="none" fill-rule="evenodd">
        <g id="Group-51" fill="#FFFFFF">
            <g id="Pinterest-Copy">
                <path d="M14.9753584,29.6769474 C6.7034787,29.6769474 0.000320802005,23.0753684 0.000320802005,14.9343158 C0.000320802005,6.79326316 6.7034787,0.193263158 14.9753584,0.193263158 C23.2456341,0.193263158 29.950396,6.79326316 29.950396,14.9343158 C29.950396,23.0753684 23.2456341,29.6769474 14.9753584,29.6769474 Z M1.38586466,14.9344737 C1.38586466,20.5934211 4.96280702,25.4281579 10.0106266,27.375 C9.89192982,26.3186842 9.78606516,24.6971053 10.0587469,23.5413158 C10.3041604,22.4992105 11.6499248,16.9018421 11.6499248,16.9018421 C11.6499248,16.9018421 11.2441103,16.1013158 11.2441103,14.9186842 C11.2441103,13.0602632 12.3364411,11.6739474 13.6998496,11.6739474 C14.8563409,11.6739474 15.4161404,12.5297368 15.4161404,13.5560526 C15.4161404,14.7023684 14.6750877,16.4155263 14.2917293,18.0039474 C13.9725313,19.335 14.9702256,20.4181579 16.3015539,20.4181579 C18.713985,20.4181579 20.5682206,17.9139474 20.5682206,14.2997368 C20.5682206,11.1007895 18.234386,8.865 14.8996491,8.865 C11.038797,8.865 8.77233083,11.7165789 8.77233083,14.6628947 C8.77233083,15.8107895 9.21984962,17.0423684 9.78125313,17.7118421 C9.89192982,17.8444737 9.90796992,17.9597368 9.87588972,18.0955263 C9.77323308,18.5171053 9.54385965,19.425 9.49894737,19.6097368 C9.439599,19.8544737 9.30165414,19.9065789 9.04340852,19.7897368 C7.34957393,19.0128947 6.29092732,16.5718421 6.29092732,14.6139474 C6.29092732,10.3997368 9.40110276,6.52815789 15.2573434,6.52815789 C19.9651128,6.52815789 23.6238596,9.83131579 23.6238596,14.2444737 C23.6238596,18.8486842 20.6740852,22.5544737 16.5822556,22.5544737 C15.206015,22.5544737 13.913183,21.8502632 13.4704762,21.0197368 C13.4704762,21.0197368 12.7903759,23.5697368 12.6251629,24.195 C12.318797,25.3555263 11.4911278,26.8097368 10.9393484,27.6971053 C12.2081203,28.0855263 13.5570927,28.2939474 14.9573935,28.2939474 C22.4529323,28.2939474 28.5289223,22.3128947 28.5289223,14.9344737 C28.5289223,7.55447368 22.4529323,1.575 14.9573935,1.575 C7.46185464,1.575 1.38586466,7.55447368 1.38586466,14.9344737 Z" id="Combined-Shape"></path>
            </g>
        </g>
    </g>
</svg>