<?xml version="1.0" encoding="UTF-8"?>
<svg width="30px" height="30px" viewBox="0 0 30 30" version="1.1" xmlns="http://www.w3.org/2000/svg" xmlns:xlink="http://www.w3.org/1999/xlink">
    <!-- Generator: Sketch 49.2 (51160) - http://www.bohemiancoding.com/sketch -->
    <title>Group 50</title>
    <desc>Created with Sketch.</desc>
    <defs></defs>
    <g id="Page-1" stroke="none" stroke-width="1" fill="none" fill-rule="evenodd">
        <g id="Group-50" fill="#FFFFFF">
            <g id="Group-2">
                <path d="M0,15 C0,6.71572834 6.71572834,0 15,0 C23.2842717,0 30,6.71572834 30,15 C30,23.2842717 23.2842717,30 15,30 C6.71572834,30 0,23.2842717 0,15 Z M22.8070418,11.9806727 C22.8070418,11.9806727 22.6507677,10.8540232 22.1719596,10.3578887 C21.5643377,9.70642467 20.8833218,9.70335895 20.5712727,9.6655485 C18.3355036,9.5 14.9818499,9.5 14.9818499,9.5 L14.97486,9.5 C14.97486,9.5 11.6212063,9.5 9.38543723,9.6655485 C9.07288889,9.70335895 8.39237229,9.70642467 7.78425108,10.3578887 C7.305443,10.8540232 7.14966811,11.9806727 7.14966811,11.9806727 C7.14966811,11.9806727 6.98989899,13.3040387 6.98989899,14.6268939 L6.98989899,15.8674857 C6.98989899,17.1908517 7.14966811,18.5137068 7.14966811,18.5137068 C7.14966811,18.5137068 7.305443,19.6403563 7.78425108,20.1364909 C8.39237229,20.7879549 9.19071861,20.7675168 9.54620491,20.8354734 C10.8243579,20.9611676 14.978355,21 14.978355,21 C14.978355,21 18.3355036,20.9948905 20.5712727,20.829342 C20.8833218,20.7910206 21.5643377,20.7879549 22.1719596,20.1364909 C22.6507677,19.6403563 22.8070418,18.5137068 22.8070418,18.5137068 C22.8070418,18.5137068 22.966811,17.1908517 22.966811,15.8674857 L22.966811,14.6268939 C22.966811,13.3040387 22.8070418,11.9806727 22.8070418,11.9806727 Z" id="Combined-Shape"></path>
                <polygon id="Path" points="13.5005 17.5939708 13.5 13 17.823 15.3049051"></polygon>
            </g>
        </g>
    </g>
</svg>