<?xml version="1.0" encoding="UTF-8"?>
<svg width="158px" height="122px" viewBox="0 0 158 122" version="1.1" xmlns="http://www.w3.org/2000/svg" xmlns:xlink="http://www.w3.org/1999/xlink">
    <!-- Generator: Sketch 49.2 (51160) - http://www.bohemiancoding.com/sketch -->
    <title>undraw_onboarding_o8mv</title>
    <desc>Created with Sketch.</desc>
    <defs>
        <linearGradient x1="50%" y1="100%" x2="50%" y2="0%" id="linearGradient-1">
            <stop stop-color="#808080" stop-opacity="0.25" offset="0%"></stop>
            <stop stop-color="#808080" stop-opacity="0.12" offset="54%"></stop>
            <stop stop-color="#808080" stop-opacity="0.1" offset="100%"></stop>
        </linearGradient>
        <linearGradient x1="103454%" y1="81284%" x2="103454%" y2="19781%" id="linearGradient-2">
            <stop stop-color="#808080" stop-opacity="0.25" offset="0%"></stop>
            <stop stop-color="#808080" stop-opacity="0.12" offset="54%"></stop>
            <stop stop-color="#808080" stop-opacity="0.1" offset="100%"></stop>
        </linearGradient>
    </defs>
    <g id="Page-1" stroke="none" stroke-width="1" fill="none" fill-rule="evenodd">
        <g id="undraw_onboarding_o8mv" transform="translate(-4.000000, -1.000000)">
            <ellipse id="Oval" fill="#00C4B1" fill-rule="nonzero" opacity="0.1" cx="122" cy="117" rx="16" ry="4"></ellipse>
            <path d="M8.87268291,85.2318489 C7.06201586,85.8573224 4.864336,87.133344 5.23476254,89.1616055 C5.41997582,90.1896667 6.24652459,90.9516578 7.03160771,91.5952407 C10.3850243,94.3371482 14.0709722,96.6378817 18.0006564,98.4420164 C19.8762863,99.300127 21.8707844,100.087193 23.2875277,101.669683 C24.704271,103.252172 25.3608106,105.464315 25.8210794,107.597054 C26.9012166,112.648 27.1681638,117.841174 26.6116913,122.977573 C32.2662248,123.08623 38.5275391,122.95807 42.5289751,118.852791 C44.9243079,116.394081 46.2083611,112.747111 49.0252615,110.844223 C50.9036558,109.575166 53.2188216,109.26034 55.4552028,108.995663 C66.040003,107.748431 76.67963,106.993405 87.3740839,106.730585 C91.8551393,106.620535 96.4343301,106.58153 100.618215,105.007399 C104.8021,103.433267 108.600354,99.9924663 109.4504,95.3271862 C109.581708,94.6083792 109.667404,93.8157413 110.155316,93.3142481 C110.590706,92.8642972 111.243099,92.7570334 111.852644,92.6776303 L148.603656,87.662698 C150.616123,87.3840906 152.699081,87.0873738 154.393644,85.9409046 C156.03292,84.8264752 157.138671,83.0461742 158.196045,81.3104504 C160.619022,77.3375096 163.133223,72.5343189 161.455246,67.991626 C160.113141,64.3613723 156.505628,62.2704241 153.05845,60.9721138 C149.611272,59.6738036 145.900095,58.7613645 143.098399,56.2162864 C138.835729,52.3436442 137.890313,45.9147796 136.689191,40.1462144 C135.602346,34.9223692 134.076434,29.8012027 132.127968,24.8381335 C130.408526,20.4723564 128.31451,16.1692658 125.193528,12.7716492 C122.072546,9.37403257 117.778086,6.96547202 113.407606,7.13820858 C107.699167,7.36666661 102.677676,11.8508519 96.9595618,11.2936372 C92.1301948,10.8269699 88.2006327,6.92646699 83.8522674,4.49979697 C76.1327441,0.188348227 67.0213569,0.567254224 58.5748024,1.91153469 C49.6182204,3.33382521 40.6063508,5.82318189 33.3498607,11.4217966 C31.6912344,12.7033904 30.1044819,14.1827954 29.1300389,16.1107583 C27.6372752,19.0681753 27.7658188,22.6719614 27.0180547,25.9581351 C24.0048836,39.1919842 7.84986336,44.7125889 4.52846418,57.8503185 C3.34807512,62.5142055 4.22161831,67.572322 6.38750783,71.8823777 C8.7164956,76.5225831 13.395204,78.5006953 15.7933012,82.4833873 C14.1899624,83.9586133 10.9957246,84.4977185 8.87268291,85.2318489 Z" id="Shape" fill="#00C4B1" fill-rule="nonzero" opacity="0.1"></path>
            <path d="M124.242055,117 C124.242055,117 122.726899,107.186217 127.278151,100.727063 C129.209092,98.0295034 130.156782,94.8156693 129.97883,91.5684382 C129.882363,90.0276112 129.635547,88.4983731 129.241493,87" id="Shape" stroke="#535461" stroke-width="2"></path>
            <path d="M131.974084,83.5778403 C131.818076,84.7924678 129.381243,88 129.381243,88 C129.381243,88 127.858545,84.1615482 128.010686,82.9469207 C128.10029,82.1495547 128.570913,81.4680075 129.241451,81.1645515 C129.911989,80.8610955 130.677939,80.9830243 131.244548,81.4834175 C131.811157,81.9838106 132.090119,82.7846817 131.974084,83.5778403 Z" id="Shape" fill="#00C4B1" fill-rule="nonzero"></path>
            <path d="M134.490443,90.7913083 C133.738704,91.7425182 130,93 130,93 C130,93 130.618452,88.7298626 131.368859,87.7845426 C131.85481,87.1685266 132.601332,86.8857072 133.327218,87.0426197 C134.053105,87.1995322 134.648075,87.7723379 134.888011,88.5452664 C135.127946,89.3181948 134.976394,90.1738199 134.490443,90.7898358 L134.490443,90.7913083 Z" id="Shape" fill="#00C4B1" fill-rule="nonzero"></path>
            <path d="M133.524211,100.914406 C132.29912,101.272356 128,100.391852 128,100.391852 C128,100.391852 130.805805,97.4315851 132.030896,97.0749421 C133.229161,96.7853493 134.479352,97.3590942 134.876813,98.3810064 C135.274274,99.4029187 134.680086,100.515823 133.524211,100.914406 Z" id="Shape" fill="#00C4B1" fill-rule="nonzero"></path>
            <path d="M129.910929,108.669662 C128.903661,109.181097 125,108.946114 125,108.946114 C125,108.946114 126.937155,105.74556 127.944423,105.234125 C128.951654,104.722647 130.208394,105.077083 130.75143,106.025781 C131.294466,106.974478 130.918161,108.158184 129.910929,108.669662 Z" id="Shape" fill="#00C4B1" fill-rule="nonzero"></path>
            <path d="M125.450805,91.5734155 C126.178899,92.5426219 130,94 130,94 C130,94 129.594269,89.8348391 128.866175,88.8613505 C128.13715,87.8924897 126.781602,87.7141891 125.838473,88.4631052 C124.895345,89.2120213 124.72178,90.6045546 125.450805,91.5734155 Z" id="Shape" fill="#00C4B1" fill-rule="nonzero"></path>
            <path d="M121.951302,101.079347 C122.924612,101.784558 127,102 127,102 C127,102 125.400991,98.1220524 124.422119,97.4211493 C123.789867,96.9503461 122.961065,96.8680255 122.25355,97.2057566 C121.546034,97.5434877 121.069618,98.2488525 121.007,99.05135 C120.944383,99.8538475 121.305285,100.628925 121.951302,101.079347 Z" id="Shape" fill="#00C4B1" fill-rule="nonzero"></path>
            <path d="M119.605214,110.41069 C120.377562,111.176623 124,112 124,112 C124,112 123.141554,108.357991 122.36794,107.592059 C121.870475,107.082346 121.139296,106.882244 120.454484,107.068403 C119.769672,107.254562 119.237369,107.798129 119.061474,108.490889 C118.885579,109.183648 119.093356,109.918227 119.605214,110.413243 L119.605214,110.41069 Z" id="Shape" fill="#00C4B1" fill-rule="nonzero"></path>
            <path d="M131.974084,83.5778403 C131.818076,84.7924678 129.381243,88 129.381243,88 C129.381243,88 127.858545,84.1615482 128.010686,82.9469207 C128.10029,82.1495547 128.570913,81.4680075 129.241451,81.1645515 C129.911989,80.8610955 130.677939,80.9830243 131.244548,81.4834175 C131.811157,81.9838106 132.090119,82.7846817 131.974084,83.5778403 Z" id="Shape" fill="#000000" fill-rule="nonzero" opacity="0.25"></path>
            <path d="M134.490443,90.7913083 C133.738704,91.7425182 130,93 130,93 C130,93 130.618452,88.7298626 131.368859,87.7845426 C131.85481,87.1685266 132.601332,86.8857072 133.327218,87.0426197 C134.053105,87.1995322 134.648075,87.7723379 134.888011,88.5452664 C135.127946,89.3181948 134.976394,90.1738199 134.490443,90.7898358 L134.490443,90.7913083 Z" id="Shape" fill="#000000" fill-rule="nonzero" opacity="0.25"></path>
            <path d="M133.524211,100.914406 C132.29912,101.272356 128,100.391852 128,100.391852 C128,100.391852 130.805805,97.4315851 132.030896,97.0749421 C133.229161,96.7853493 134.479352,97.3590942 134.876813,98.3810064 C135.274274,99.4029187 134.680086,100.515823 133.524211,100.914406 Z" id="Shape" fill="#000000" fill-rule="nonzero" opacity="0.25"></path>
            <path d="M129.910929,108.669662 C128.903661,109.181097 125,108.946114 125,108.946114 C125,108.946114 126.937155,105.74556 127.944423,105.234125 C128.951654,104.722647 130.208394,105.077083 130.75143,106.025781 C131.294466,106.974478 130.918161,108.158184 129.910929,108.669662 Z" id="Shape" fill="#000000" fill-rule="nonzero" opacity="0.25"></path>
            <path d="M125.450805,91.5734155 C126.178899,92.5426219 130,94 130,94 C130,94 129.594269,89.8348391 128.866175,88.8613505 C128.13715,87.8924897 126.781602,87.7141891 125.838473,88.4631052 C124.895345,89.2120213 124.72178,90.6045546 125.450805,91.5734155 Z" id="Shape" fill="#000000" fill-rule="nonzero" opacity="0.25"></path>
            <path d="M121.951302,101.079347 C122.924612,101.784558 127,102 127,102 C127,102 125.400991,98.1220524 124.422119,97.4211493 C123.789867,96.9503461 122.961065,96.8680255 122.25355,97.2057566 C121.546034,97.5434877 121.069618,98.2488525 121.007,99.05135 C120.944383,99.8538475 121.305285,100.628925 121.951302,101.079347 Z" id="Shape" fill="#000000" fill-rule="nonzero" opacity="0.25"></path>
            <path d="M119.605214,110.41069 C120.377562,111.176623 124,112 124,112 C124,112 123.141554,108.357991 122.36794,107.592059 C121.870475,107.082346 121.139296,106.882244 120.454484,107.068403 C119.769672,107.254562 119.237369,107.798129 119.061474,108.490889 C118.885579,109.183648 119.093356,109.918227 119.605214,110.413243 L119.605214,110.41069 Z" id="Shape" fill="#000000" fill-rule="nonzero" opacity="0.25"></path>
            <path d="M125,117 C125,117 119.619567,108.41467 120.945281,100.596682 C121.523635,97.3236103 121.028311,93.9505903 119.53368,90.9840601 C118.812441,89.5810061 117.96432,88.2473856 117,87" id="Shape" stroke="#535461" stroke-width="2"></path>
            <path d="M116.946367,82.6629168 C117.246998,83.8736915 116.185719,88 116.185719,88 C116.185719,88 113.373783,85.1093853 113.075744,83.8956789 C112.880378,83.112762 113.069091,82.2714163 113.570797,81.6885685 C114.072503,81.1057208 114.81098,80.8699195 115.508052,81.0699887 C116.205124,81.2700579 116.754889,81.8756024 116.950255,82.6585193 L116.946367,82.6629168 Z" id="Shape" fill="#00C4B1" fill-rule="nonzero"></path>
            <path d="M121.913711,87.9657865 C121.58606,89.1729552 118.713607,92 118.713607,92 C118.713607,92 117.742309,87.8228129 118.066075,86.6141702 C118.394014,85.406131 119.520315,84.7293913 120.581737,85.1026299 C121.64316,85.4758684 122.237766,86.7577473 121.909826,87.9657865 L121.913711,87.9657865 Z" id="Shape" fill="#00C4B1" fill-rule="nonzero"></path>
            <path d="M126.246841,98.5361927 C125.303455,99.2963222 121,100 121,100 C121,100 122.170277,96.2912505 123.113663,95.5363723 C124.057596,94.7750627 125.524525,94.8309013 126.39014,95.6610914 C127.255756,96.4912815 127.192267,97.7814471 126.248334,98.5427568 L126.246841,98.5361927 Z" id="Shape" fill="#00C4B1" fill-rule="nonzero"></path>
            <path d="M125.520751,107.599613 C124.796272,108.560902 121,110 121,110 C121,110 121.413988,105.864189 122.131568,104.895811 C122.59284,104.252588 123.357043,103.91656 124.128403,104.017781 C124.899764,104.119003 125.557234,104.64159 125.846349,105.383283 C126.135465,106.124976 126.010856,106.969383 125.520751,107.589689 L125.520751,107.599613 Z" id="Shape" fill="#00C4B1" fill-rule="nonzero"></path>
            <path d="M115.085825,92.6649577 C116.092697,93.1785449 120,92.9487492 120,92.9487492 C120,92.9487492 118.066379,89.747933 117.062178,89.2356014 C116.410721,88.90362 115.620405,88.9236723 114.988934,89.2882048 C114.357463,89.6527374 113.980772,90.306369 114.000757,91.002883 C114.020743,91.699397 114.434369,92.3329763 115.085825,92.6649577 Z" id="Shape" fill="#00C4B1" fill-rule="nonzero"></path>
            <path d="M115.856534,102.977553 C117.066254,103.189071 121,101.836127 121,101.836127 C121,101.836127 117.91823,99.2566346 116.70851,99.046406 C115.917654,98.8909559 115.095048,99.1322696 114.559056,99.676954 C114.023064,100.221638 113.857794,100.984222 114.127207,101.669572 C114.39662,102.354921 115.058442,102.855491 115.856534,102.977553 Z" id="Shape" fill="#00C4B1" fill-rule="nonzero"></path>
            <path d="M117.408131,112.886054 C118.624415,113.277389 123,112.535157 123,112.535157 C123,112.535157 120.299848,109.493183 119.080522,109.09663 C117.884865,108.768714 116.599173,109.300805 116.153992,110.307794 C115.70881,111.314782 116.259781,112.444605 117.408131,112.879532 L117.408131,112.886054 Z" id="Shape" fill="#00C4B1" fill-rule="nonzero"></path>
            <polygon id="Shape" fill="url(#linearGradient-1)" fill-rule="nonzero" points="44 10 44 13.8035324 44 108 114 108 114 13.8035324 114 10"></polygon>
            <rect id="Rectangle-path" fill="#F6F7F9" fill-rule="nonzero" x="44" y="10" width="69" height="4"></rect>
            <g id="Group" opacity="0.2" transform="translate(44.000000, 10.000000)" fill="#00C4B1" fill-rule="nonzero">
                <rect id="Rectangle-path" x="0.0112224449" y="0.00296296296" width="69.9298597" height="3.9837037"></rect>
            </g>
            <rect id="Rectangle-path" fill="#F6F7F9" fill-rule="nonzero" x="44" y="14" width="69" height="92"></rect>
            <circle id="Oval" fill="#F6F7F9" fill-rule="nonzero" cx="45.5" cy="12.5" r="1"></circle>
            <circle id="Oval" fill="#F6F7F9" fill-rule="nonzero" cx="47.5" cy="12.5" r="1"></circle>
            <circle id="Oval" fill="#F6F7F9" fill-rule="nonzero" cx="49.5" cy="12.5" r="1"></circle>
            <g id="Group" opacity="0.2" transform="translate(57.000000, 20.000000)" fill="#00C4B1" fill-rule="nonzero">
                <rect id="Rectangle-path" x="0.00685358255" y="0.14" width="43.9383178" height="1.79285714"></rect>
            </g>
            <rect id="Rectangle-path" fill="#00C4B1" fill-rule="nonzero" x="95" y="20" width="6" height="1"></rect>
            <g id="Group" opacity="0.2" transform="translate(51.000000, 30.000000)" fill="#00C4B1" fill-rule="nonzero">
                <rect id="Rectangle-path" x="0.084345679" y="0.0648275862" width="55.7842963" height="19.9296552"></rect>
            </g>
            <rect id="Rectangle-path" fill="#F6F7F9" fill-rule="nonzero" x="67" y="37" width="33" height="1"></rect>
            <rect id="Rectangle-path" fill="#F6F7F9" fill-rule="nonzero" x="67" y="41" width="17" height="1"></rect>
            <rect id="Rectangle-path" fill="#00C4B1" fill-rule="nonzero" x="95" y="46" width="6" height="1"></rect>
            <circle id="Oval" fill="#F6F7F9" fill-rule="nonzero" cx="58.5" cy="40.5" r="3.5"></circle>
            <g id="Group" opacity="0.2" transform="translate(51.000000, 56.000000)" fill="#00C4B1" fill-rule="nonzero">
                <rect id="Rectangle-path" x="0.084345679" y="0.0634482759" width="55.7842963" height="19.9296552"></rect>
            </g>
            <rect id="Rectangle-path" fill="#F6F7F9" fill-rule="nonzero" x="67" y="63" width="33" height="1"></rect>
            <rect id="Rectangle-path" fill="#F6F7F9" fill-rule="nonzero" x="67" y="67" width="17" height="1"></rect>
            <rect id="Rectangle-path" fill="#00C4B1" fill-rule="nonzero" x="95" y="72" width="6" height="1"></rect>
            <circle id="Oval" fill="#F6F7F9" fill-rule="nonzero" cx="58.5" cy="65.5" r="3.5"></circle>
            <g id="Group" opacity="0.2" transform="translate(51.000000, 81.000000)" fill="#00C4B1" fill-rule="nonzero">
                <rect id="Rectangle-path" x="0.084345679" y="0.0620689655" width="55.7842963" height="19.9296552"></rect>
            </g>
            <rect id="Rectangle-path" fill="#F6F7F9" fill-rule="nonzero" x="67" y="88" width="33" height="1"></rect>
            <rect id="Rectangle-path" fill="#F6F7F9" fill-rule="nonzero" x="67" y="92" width="17" height="1"></rect>
            <rect id="Rectangle-path" fill="#00C4B1" fill-rule="nonzero" x="95" y="97" width="6" height="1"></rect>
            <circle id="Oval" fill="#F6F7F9" fill-rule="nonzero" cx="58.5" cy="91.5" r="3.5"></circle>
            <path d="M26.8554417,64.133787 C26.3213515,66.5673446 25.3580572,69.5661068 25.3580572,69.5661068 C26.3103109,70.6785509 30.4643452,70.8775471 30.4643452,70.8775471 L30.4712456,70.8692556 L30.5361093,70.8692556 C30.5650909,71.0226485 30.5982128,71.1705137 30.638235,71.3114693 C30.6308746,71.4505824 30.6239742,71.5915381 30.6175338,71.7343363 C30.5582989,71.9007061 30.5379964,72.0784719 30.5581905,72.2539374 C30.5663341,72.2931228 30.5764678,72.3318668 30.5885522,72.3700186 C30.4891866,74.5727959 30.4188026,76.9220566 30.4795261,78.2791002 C30.4799058,78.6634993 30.519209,79.0468694 30.5968327,79.4233283 C30.6686986,79.7106125 30.7094163,80.0048193 30.7182795,80.3008463 C30.7859033,82.2866625 30.3042562,85.6226127 30.3042562,85.6226127 C30.3042562,85.6226127 30.3166769,85.668216 30.3235773,85.6917086 C30.3152968,85.7483673 30.3097765,85.7815333 30.3097765,85.7815333 C30.3516508,85.9159507 30.3753233,86.0553866 30.3801605,86.1961087 C30.4160425,87.8709934 29.4568884,91.5151113 29.4568884,91.5151113 C29.4568884,91.5151113 28.6812846,97.118789 28.7916909,99.2538524 C28.7952812,99.4243599 28.8077187,99.5945654 28.828953,99.7637802 C29.0663264,101.539545 29.3809841,106.497867 29.3809841,106.497867 C29.4360191,106.579636 29.4964154,106.657655 29.5617743,106.731411 C29.5341727,106.841964 29.5010509,106.9539 29.4651688,107.064453 C29.0938941,108.182049 28.9370295,109.359868 29.0028428,110.535831 C29.0125033,110.674023 29.0235439,110.824652 29.0373447,110.976663 C29.1960537,112.806323 33.616443,111.667622 33.9076394,111.454807 C34.007005,111.381565 33.9366211,110.718245 33.7999933,109.876656 L38.3542502,111.00292 C38.3542502,111.00292 41.5836324,111.481063 43.119659,111.00292 C44.6556856,110.524776 44.6018626,109.206426 42.4047787,108.989465 C40.8659919,108.840218 39.644623,107.405787 39.041529,106.558671 C39.2747621,105.921607 41.0233208,101.086276 41.3448789,98.0930412 C41.5529441,96.1592979 41.8937089,94.2421911 42.3647564,92.3553175 L42.7083958,87.9013956 L43.3183902,85.2757513 L44.0456912,81.8043731 C44.8668376,79.2588801 45.1180117,75.0039544 45.1180117,75.0039544 L45.7528475,70.8291799 C45.8412943,70.3754568 45.8906983,69.9149711 45.9005159,69.4527895 C46.4958134,69.574996 47.0833722,69.7323487 47.6601151,69.9240236 C48.6537711,69.1501495 47.2460918,61.6933197 47.2460918,61.6933197 C47.2460918,61.6933197 46.5684735,56.9837429 45.9943611,52.6901235 C47.3095753,52.4925093 48.7351957,52.8020589 48.7351957,52.8020589 L57.0750061,52.985854 C57.2482345,52.7583497 57.3980449,52.5138887 57.5221514,52.2562013 L57.8795915,52.2562013 C57.9238893,52.1944565 57.9587726,52.1264598 57.9830974,52.0544412 L58.1307657,52.0820796 C58.6728732,52.2075458 59.2058807,52.3696004 59.7261357,52.5671328 C59.7261357,52.5671328 62.356564,52.884974 61.9591016,50.1225198 C61.663765,48.0634619 59.3231529,48.8110796 58.1528469,49.3223892 L58.0051786,49.3901032 C57.994138,49.3127158 57.9872376,49.2684944 57.9872376,49.2684944 L57.6104763,49.3375903 C57.5871365,49.2800888 57.5608808,49.2238176 57.5318119,49.1689963 C57.5318119,49.1689963 53.4412612,49.0100758 50.1249341,48.5125853 C47.7663811,48.1588142 45.9847006,46.8086803 45.1469934,46.0596807 C44.5659806,43.1065218 42.8781454,42.209657 42.8781454,42.209657 C41.9410725,42.1626718 41.0964649,41.7494783 40.5775556,41.4302552 C40.389978,41.3181317 40.2101605,41.1934766 40.0393253,41.0571374 L39.9482401,41.1096502 L39.9371995,41.0999768 C40.4988912,40.5776118 41.081284,40.0980862 41.5932929,39.6959481 L41.8237659,39.5176806 C43.4583779,39.3574176 44.9167566,38.4210505 45.7443119,37.0004536 C46.5718672,35.5798566 46.6679616,33.847786 46.0026416,32.344144 C45.9805604,32.294395 45.9543389,32.2446459 45.9308776,32.1962788 C46.4586244,32.1378202 46.8775123,31.7246596 46.9438547,31.197152 C46.9949176,30.6181284 46.5960751,30.0017929 46.8569098,29.4821917 C46.9048221,29.4051025 46.9463626,29.3242214 46.9811168,29.2403561 C47.0027448,29.1612164 47.0092993,29.0787067 47.0004379,28.9971385 C46.9614757,28.501965 46.7096856,28.0481386 46.310399,27.7534122 C45.7183456,27.3236357 45.1925359,27.5419788 44.5452794,27.504667 C43.7972772,27.4618275 43.0561754,27.2807963 42.3192139,27.1591875 C41.4732261,27.0209957 40.6065373,26.9270252 39.7619296,27.0748905 C38.917322,27.2227557 38.0906554,27.6373311 37.6007277,28.3421093 C37.3909559,28.6433675 37.2488079,28.9874651 37.0486966,29.2983966 C36.8237439,29.6576953 36.5325475,29.9686269 36.2744729,30.303051 C35.8397484,30.8654917 35.4878285,31.5398677 35.5223305,32.2501736 C35.5416516,32.6523117 35.6837996,33.0392488 35.7114012,33.4413869 C35.7127136,33.8160863 35.6850292,34.1903243 35.6285965,34.5607406 C35.5858891,35.038008 35.6133226,35.5189673 35.7100211,35.9882619 C35.729444,36.1352153 35.7854426,36.2749232 35.8728703,36.3945458 C35.9713763,36.5002431 36.0947292,36.5795792 36.2316905,36.6253261 C36.3749339,36.6819175 36.5220631,36.728101 36.6719353,36.763518 C36.5042385,37.1541873 36.2975576,37.5268941 36.0550405,37.875962 L35.8314679,37.6437998 L35.2269938,38.5890317 L35.2035325,38.5254635 C35.1745509,38.5848859 35.141429,38.6415446 35.1069271,38.6982032 L35.0448236,38.5254635 C34.7770885,39.0630296 34.2761202,39.512153 33.6909672,39.882507 C32.109398,40.877488 29.9026535,41.2892996 29.9026535,41.2892996 C26.347573,41.8061369 27.0044901,45.4834209 27.0044901,45.4834209 C27.0044901,45.4834209 25.496065,52.0447678 25.0723811,56.1006973 C24.6486972,60.1566268 26.223366,62.7408136 26.223366,62.7408136 L26.8554417,64.133787 Z M43.8096979,52.1415021 C43.9477057,52.5933893 44.0691526,53.0217839 44.1726584,53.3962837 L44.1064147,53.4225401 C44.0305104,53.0756787 43.9270045,52.6307011 43.8138382,52.1415021 L43.8096979,52.1415021 Z M39.8985573,41.1317609 L39.8792362,41.1441982 L39.8971772,41.1262333 L39.8985573,41.1317609 Z M33.7668715,109.692861 C33.5929817,108.652277 33.333527,107.396114 33.173438,106.645732 C33.2866044,106.27676 33.4370329,105.712937 33.6136828,104.874113 C34.0111453,102.993323 34.2485186,96.3380053 34.2485186,96.3380053 L35.175931,90.7467649 C36.0232987,88.5992642 36.2082292,86.0482435 36.2082292,86.0482435 C36.5491084,85.1472329 37.3371329,79.6319979 37.4627199,78.7461885 C37.4268379,79.3583782 37.3412731,80.9088902 37.2957305,82.6307601 C37.2957305,82.6459612 37.2957305,82.6625442 37.2957305,82.6777453 C37.2612286,83.9781302 37.251568,85.3724855 37.2957305,86.529151 C37.3081512,86.8539017 37.3247122,87.1620694 37.3467934,87.4467445 C37.3536938,87.5199862 37.357834,87.5959917 37.3605942,87.6706153 C37.4599598,90.6693774 36.1185241,94.4420137 36.1185241,94.4420137 C36.1185241,94.4420137 35.5209504,97.2390159 35.6092754,98.8019652 C35.6082325,99.0826664 35.6482184,99.3620097 35.7279621,99.631116 C35.7674913,99.7555861 35.7902338,99.8847871 35.7955859,100.015289 C35.8204273,101.510525 34.9385576,104.64886 34.7136049,105.418589 C34.2222972,106.432917 33.8565765,109.018485 33.7668715,109.692861 Z" id="Shape" fill="url(#linearGradient-2)" fill-rule="nonzero"></path>
            <path d="M38.6958787,105.880681 C38.6958787,105.880681 40.1939668,108.632208 42.3009035,108.837828 C44.4078403,109.043449 44.4585776,110.325871 42.9858582,110.792576 C41.5131388,111.25928 38.416823,110.792576 38.416823,110.792576 L34,109.687366 C34,109.687366 34.5340778,105.263819 35.243066,105.032496 C35.9520542,104.801173 38.6958787,105.880681 38.6958787,105.880681 Z" id="Shape" fill="#4C4C78" fill-rule="nonzero"></path>
            <path d="M33.0730898,106.309951 C33.0730898,106.309951 34.2458991,111.281496 33.9530471,111.48358 C33.660195,111.685665 29.2113664,112.763449 29.0488266,111.030541 C29.0348145,110.886572 29.0236049,110.746566 29.0151976,110.613164 C28.94768,109.499002 29.1055511,108.3829 29.480398,107.324336 C29.6084216,107.000091 29.6697662,106.65583 29.6611535,106.309951 C29.5840872,105.612561 33.0730898,106.309951 33.0730898,106.309951 Z" id="Shape" fill="#4C4C78" fill-rule="nonzero"></path>
            <path d="M35,40.4217583 C35,40.4217583 38.6489177,49.2782859 38.000474,46.4385739 C37.5738663,44.5519929 40.3482383,42.0482666 42.2665508,40.5763961 C43.2434824,39.8257 44,39.3435112 44,39.3435112 C44,39.3435112 37.1458366,31.4457379 37.6321694,34.8533923 C37.7652901,35.7865336 37.6358954,36.7378947 37.2581766,37.6031333 C36.7583496,38.7161488 35.9814596,39.6858522 35,40.4217583 Z" id="Shape" fill="#FFB9B9" fill-rule="nonzero"></path>
            <path d="M57,53.4263667 C57.2333746,53.3866646 57.4708756,53.4050326 57.69834,53.4803752 C58.1614013,53.6109662 58.616547,53.7806953 59.0605195,53.9883476 C59.0605195,53.9883476 61.3090078,54.3211571 60.9640017,51.4295097 C60.7117903,49.2720867 58.713134,50.054481 57.7126161,50.5916472 C57.3723687,50.7741085 57.1463302,50.9288357 57.1463302,50.9288357 L57,53.4263667 Z" id="Shape" fill="#FFB9B9" fill-rule="nonzero"></path>
            <path d="M57,52.9439111 C57.2839395,52.9026797 57.5728995,52.9217552 57.8496484,53 C58.146374,52.213239 57.920573,50.3501769 57.8728074,50 C57.4588391,50.1894896 57.1838251,50.3501769 57.1838251,50.3501769 L57,52.9439111 Z" id="Shape" fill="#000000" fill-rule="nonzero" opacity="0.1"></path>
            <path d="M57.2056503,50.1273321 L57.8740138,50 C57.8740138,50 58.2176663,52.3787313 57.7698357,53 L57,53 L57.2056503,50.1273321 Z" id="Shape" fill="#CBCDDA" fill-rule="nonzero"></path>
            <path d="M43.581295,54.4520864 C43.581295,54.4520864 45.7568345,53.2484805 46.0158273,54.7690359 C46.2748201,56.2895914 46.618705,58.9014162 46.618705,58.9014162 L47.2201439,62.2193565 L48,68.8686104 L47.8906475,70 C47.8906475,70 45.5784173,69.2805111 45.0316547,69.5292564 C44.4848921,69.7780016 44.0460432,66.7395653 44.0460432,66.7395653 L43.1438849,63.5861179 L43,56.8994184 L43.581295,54.4520864 Z" id="Shape" fill="#4C4C78" fill-rule="nonzero"></path>
            <path d="M43.581295,54.4520864 C43.581295,54.4520864 45.7568345,53.2484805 46.0158273,54.7690359 C46.2748201,56.2895914 46.618705,58.9014162 46.618705,58.9014162 L47.2201439,62.2193565 L48,68.8686104 L47.8906475,70 C47.8906475,70 45.5784173,69.2805111 45.0316547,69.5292564 C44.4848921,69.7780016 44.0460432,66.7395653 44.0460432,66.7395653 L43.1438849,63.5861179 L43,56.8994184 L43.581295,54.4520864 Z" id="Shape" fill="#000000" fill-rule="nonzero" opacity="0.1"></path>
            <path d="M44,46 C44,46 46.1427472,48.320645 49.3944241,48.7892368 C52.6461009,49.2578286 56.6584599,49.4061504 56.6584599,49.4061504 C56.6584599,49.4061504 57.6704266,51.1466342 56.2105179,53 L48.0314784,52.8267392 C48.0314784,52.8267392 46.2205908,52.4487155 44.8180405,52.8267392 L44,46 Z" id="Shape" fill="#4C4C78" fill-rule="nonzero"></path>
            <path d="M44,46 C44,46 46.1427472,48.320645 49.3944241,48.7892368 C52.6461009,49.2578286 56.6584599,49.4061504 56.6584599,49.4061504 C56.6584599,49.4061504 57.6704266,51.1466342 56.2105179,53 L48.0314784,52.8267392 C48.0314784,52.8267392 46.2205908,52.4487155 44.8180405,52.8267392 L44,46 Z" id="Shape" fill="#000000" fill-rule="nonzero" opacity="0.05"></path>
            <g id="Group"></g>
            <path d="M37.0111788,37.7469365 C37.7919812,39.6188695 39.1467068,41 41.1167313,41 C41.2034871,41 41.2875735,41 41.3729946,41 C42.289937,40.2009494 43,39.6877016 43,39.6877016 C43,39.6877016 36.5667221,31.2812108 37.0231912,34.9083617 C37.1633352,36.0111712 37.3248345,36.9134699 37.0111788,37.7469365 Z" id="Shape" fill="#000000" fill-rule="nonzero" opacity="0.1"></path>
            <path d="M36.0000091,34.9986467 C35.9992576,37.7600662 38.2372225,39.9992482 40.9986436,39.9999998 C43.7600647,40.0007514 45.9992482,37.7627879 45.9999998,35.0013684 C46.0007515,32.2399489 43.7627867,30.0007668 41.0013656,30.0000151 C39.6743985,29.996755 38.4008019,30.5222608 37.4622363,31.460315 C36.5236707,32.3983693 35.9974714,33.6716789 36.0000091,34.9986467 Z" id="Shape" fill="#FFB9B9" fill-rule="nonzero"></path>
            <path d="M33,66.6543502 C33,66.6543502 44.4975354,67.6809374 44.926904,66.1957227 C45.3562725,64.710508 43.7538579,60.6893531 43.7538579,60.6893531 L44.2674163,55.0736513 L44.2870607,54.8578266 C44.2870607,54.8578266 42.8502195,48.7834972 42.8979271,48.3035713 C42.9470379,47.8676622 40.5784951,42.7659639 40.0915968,41.7280175 L40.0031974,41.5405908 L39.9119916,41.5945469 L39.872703,41.6186852 L39.311437,41.9509417 L37.0846138,41.4198993 L34.4045683,40 L34.1505954,55.5336986 L33,66.6543502 Z" id="Shape" fill="#CBCDDA" fill-rule="nonzero"></path>
            <path d="M38.4492321,42.0259365 C38.4492321,42.0259365 39.1672355,41.8159472 39.4475256,42.5909736 C39.5556286,42.9221068 39.6838946,43.2451633 39.8314846,43.5580296 L40.1117747,45.3539907 L40.6237201,48.1902279 L41,60.7619561 L40.831058,63 L39.894198,61.2040388 L39.7239761,49.4612158 L39.7239761,47.9968167 C39.6687059,46.7332274 39.4042955,45.4905262 38.9432594,44.3275299 L38.815273,43.9973493 L38,42.8686568 L38.4492321,42.0259365 Z" id="Shape" fill="#000000" fill-rule="nonzero" opacity="0.1"></path>
            <path d="M38.4512143,41.0259434 C38.4512143,41.0259434 39.1683,40.8158988 39.4482318,41.5911291 C39.5561966,41.9223495 39.6842987,42.2454911 39.8317,42.5584397 L40.1116319,44.3548736 L40.6229229,47.1918572 L41,59.7668945 L40.8287175,62 L39.893055,60.2035661 L39.7230507,48.4576522 L39.7230507,46.9928676 C39.668284,45.7290268 39.404644,44.4859965 38.9446101,43.322615 L38.8167874,42.9923475 L38,41.8675036 L38.4512143,41.0259434 Z" id="Shape" fill="#4C4C78" fill-rule="nonzero"></path>
            <path d="M35.8995272,39 C35.8995272,39 38.1914894,41.9603651 39,42.3149171 C39,42.3149171 38.5957447,44.5618544 38.1914894,45 C38.1914894,45 35.786052,42.0093682 35.3546099,41.7672352 L35,40.7021379 L35.8995272,39 Z" id="Shape" fill="#000000" fill-rule="nonzero" opacity="0.1"></path>
            <path d="M35.8995272,39 C35.8995272,39 38.1914894,41.9603651 39,42.3149171 C39,42.3149171 38.5957447,44.5618544 38.1914894,45 C38.1914894,45 35.786052,42.0093682 35.3546099,41.7672352 L35,40.7021379 L35.8995272,39 Z" id="Shape" fill="#CBCDDA" fill-rule="nonzero"></path>
            <path d="M40,41 L40.0252765,41.0722449 L40.8113744,43.3431897 L42.214218,47.6315403 C42.214218,47.6315403 42.2281201,47.6751599 42.2521327,47.7569466 C42.4846761,48.5366467 43.735861,52.7691098 43.9823065,54 L44,53.792807 C44,53.792807 42.707109,47.955961 42.750079,47.4952291 C42.7943128,47.0767537 40.6609795,42.179092 40.2224329,41.182657 C40.1529226,41.1308588 40.0960506,41.0872392 40.0606635,41.0545245 L40,41 Z" id="Shape" fill="#000000" fill-rule="nonzero" opacity="0.1"></path>
            <path d="M40,41 L40.8952027,43.410015 L42.4443774,47.8155391 C42.4443774,47.8155391 42.4597158,47.8603506 42.4862093,47.944372 C42.7581167,48.79859 44.3072915,53.6718335 44.4383647,54.5638611 C44.5778044,55.5441113 46.5299598,60.8346613 46.5299598,60.8346613 L47.6454772,70 C48.6396821,69.2214013 47.2271582,61.7378917 47.2271582,61.7378917 C47.2271582,61.7378917 45.6361515,50.6358588 45.2596644,46.9431165 C44.8831773,43.2503742 42.8431749,42.1580955 42.8431749,42.1580955 C41.9047459,42.1104834 41.0597415,41.6959776 40.5396315,41.3752958 C40.3516353,41.2624018 40.171357,41.1370242 40,41 Z" id="Shape" fill="#4C4C78" fill-rule="nonzero"></path>
            <path d="M29.0410264,100.240944 C29.2774898,102.020034 29.5941571,106.985848 29.5941571,106.985848 C30.7004184,108.661601 33.1438731,107.755298 33.1438731,107.755298 C33.1438731,107.755298 33.4052273,107.249779 33.7993329,105.364557 C34.1934385,103.479336 34.4312847,96.815426 34.4312847,96.815426 L35.3522472,91.2142228 C36.1930059,89.0636736 36.3769218,86.5151331 36.3769218,86.5151331 C36.7447537,85.5376108 37.6394425,79.0803773 37.6394425,79.0803773 C37.6394425,79.0803773 37.2702278,84.8687062 37.5011599,87.9213689 C37.7320919,90.9740316 36.2925694,95.0907972 36.2925694,95.0907972 C36.2925694,95.0907972 35.4767016,98.9408389 35.8984638,100.134813 C36.3202259,101.328786 34.8461327,106.268067 34.8461327,106.268067 C34.9775012,107.702232 39.1577862,107.117115 39.1577862,107.117115 C39.1577862,107.117115 41.129697,101.78124 41.4712552,98.567984 C41.6780514,96.6308118 42.0167235,94.7103235 42.4848671,92.8201524 L42.8250425,88.3598575 L43.4307205,85.7317188 L44.1539389,82.2545321 C44.9684238,79.7045951 45.2187154,75.443994 45.2187154,75.443994 L45.8492844,71.2629912 C46.2641324,69.1948332 45.7289784,66.7705777 45.3694435,65.4970057 C45.2145669,64.9481967 45.0928782,64.6116497 45.0928782,64.6116497 C44.7305776,64.8713914 42.6563376,65.1702339 41.5832641,65.4229933 C40.9941824,65.5591115 40.3883557,65.606173 39.7855895,65.5626393 C37.0738292,65.346315 34.3910466,64.850792 31.7790232,64.0837876 L31.5024579,64 L31.4471448,64.4775895 L31.3171591,65.6171013 L31.0876099,67.6377797 C31.0876099,67.6377797 30.376837,78.4170585 30.7972163,79.8777562 C31.2175956,81.3384539 30.5082055,86.2442198 30.5082055,86.2442198 C30.9023111,87.4088679 29.6674469,92.1428691 29.6674469,92.1428691 C29.6674469,92.1428691 28.8045631,98.4632494 29.0410264,100.240944 Z" id="Shape" fill="#000000" fill-rule="nonzero" opacity="0.1"></path>
            <path d="M29.0408613,100.240944 C29.2773269,102.020034 29.5939973,106.985848 29.5939973,106.985848 C30.7002694,108.661601 33.1437479,107.755298 33.1437479,107.755298 C33.1437479,107.755298 33.4051047,107.249779 33.7992141,105.364557 C34.1933235,103.479336 34.431172,96.815426 34.431172,96.815426 L35.3521436,91.2142228 C36.1929104,89.0636736 36.3768281,86.5151331 36.3768281,86.5151331 C36.7446636,85.5376108 37.6393611,79.0803773 37.6393611,79.0803773 C37.6393611,79.0803773 37.2701428,84.8687062 37.5010771,87.9213689 C37.7320114,90.9740316 36.2924748,95.0907972 36.2924748,95.0907972 C36.2924748,95.0907972 35.4765992,98.9408389 35.8983654,100.134813 C36.3201316,101.328786 34.8460241,106.268067 34.8460241,106.268067 C34.9773939,107.702232 39.1577196,107.117115 39.1577196,107.117115 C39.1577196,107.117115 41.1296496,101.78124 41.4712111,98.567984 C41.6780093,96.6308118 42.0166847,94.7103235 42.4848329,92.8201524 L42.8250116,88.3598575 L43.4306955,85.7317188 L44.1539209,82.2545321 C44.9684137,79.7045951 45.2187078,75.443994 45.2187078,75.443994 L45.8492829,71.2615948 C46.2641349,69.1948332 45.7289758,66.7705777 45.3694374,65.4970057 C45.2145593,64.9481967 45.0928693,64.6116497 45.0928693,64.6116497 C44.7305652,64.8713914 42.6563051,65.1702339 41.5832211,65.4229933 C40.9941336,65.5591115 40.3883011,65.606173 39.785529,65.5626393 C37.0737423,65.346315 34.3909336,64.850792 31.7788847,64.0837876 L31.5023167,64 L31.4470031,64.4775895 L31.3170161,65.6171013 L31.0874646,67.6377797 C31.0874646,67.6377797 30.3766848,78.4170585 30.7970682,79.8777562 C31.2174516,81.3384539 30.5122032,86.2456162 30.5122032,86.2456162 C30.9063126,87.4102643 29.6714364,92.1442655 29.6714364,92.1442655 C29.6714364,92.1442655 28.8043956,98.4632494 29.0408613,100.240944 Z" id="Shape" fill="#474463" fill-rule="nonzero"></path>
            <path d="M36.0000003,34.6473068 C35.9996999,35.4573837 36.238424,36.2533673 36.6923517,36.9558317 C37.5055447,37.0821878 38.3713394,36.9431961 38.9869209,36.4643067 C39.4034691,36.1383081 39.672164,35.6922713 40.0304238,35.3144667 C40.2619757,35.0812892 40.5113599,34.8625947 40.7767986,34.6599424 C40.9492701,34.5067913 41.1479151,34.3788541 41.3653683,34.2808742 C41.5879277,34.1796391 41.8509729,34.1768336 42.0762014,34.2732929 C42.3605346,34.4160752 42.4628946,34.7332289 42.6249646,34.9872045 C42.7503293,35.2041751 42.964547,35.3701482 43.223486,35.4509312 C43.4880985,35.5248489 43.7760541,35.4373203 43.9343191,35.2348624 C44.1106057,34.9644604 43.9812341,34.5424312 44.2783623,34.3781684 C44.3564326,34.3439252 44.4372077,34.3147861 44.5200455,34.2909827 C44.9024737,34.1368283 44.9465454,33.680683 44.977822,33.3091962 C44.994882,33.12598 45.0389537,32.918756 45.212397,32.8201983 C45.3858402,32.7216406 45.6118851,32.7709195 45.8180267,32.7759737 C45.8790694,32.7771424 45.9400767,32.7724827 46,32.7620745 C45.0001325,30.7565623 42.5573084,29.6467871 40.1427676,30.1011335 C37.7282269,30.5554798 36.0010325,32.4499312 36.0014219,34.6435161 L36.0000003,34.6473068 Z" id="Shape" fill="#000000" fill-rule="nonzero" opacity="0.1"></path>
            <path d="M46.3353966,28.7747751 C46.7174791,29.0713025 46.9586199,29.5293522 46.9958943,30.029398 C47.0049196,30.1122353 46.9990336,30.1961332 46.9785479,30.2766492 C46.9448443,30.3616344 46.9051468,30.4438127 46.8597917,30.5224875 C46.6089361,31.0480728 46.9932256,31.6725586 46.9425208,32.2603099 C46.8759249,32.8332975 46.4202165,33.2663651 45.8750497,33.274746 C45.6815706,33.274746 45.4747481,33.2139929 45.3066214,33.3241963 C45.1384947,33.4343996 45.1024676,33.6661093 45.0864555,33.8709745 C45.0557657,34.2877693 45.0157356,34.7978131 44.6567984,34.9687696 C44.5792358,34.99648 44.5034625,35.0295169 44.4299609,35.0676701 C44.151084,35.2513424 44.2738432,35.7246517 44.1070509,36.0241788 C43.9591485,36.2514671 43.6885397,36.3500348 43.4398815,36.2671914 C43.1971258,36.1763585 42.996223,35.9909182 42.8781249,35.7486704 C42.7246759,35.4660977 42.6326065,35.110056 42.3630701,34.9504024 C42.1517462,34.8427593 41.9051493,34.8453704 41.6959007,34.9574667 C41.4918515,35.067105 41.30542,35.2101506 41.1434845,35.3813258 C40.8946718,35.6082927 40.6606293,35.8528043 40.4429566,36.1131893 C40.1067032,36.5370484 39.8545132,37.0343764 39.4622176,37.3988952 C38.7256626,38.0841342 37.5941433,38.1519516 36.686793,37.7620012 C36.5558198,37.7151446 36.4376407,37.6351171 36.3425336,37.5288787 C36.2569416,37.4058651 36.2018852,37.2620674 36.1824129,37.110671 C36.0902403,36.6349813 36.0637222,36.1476498 36.1036869,35.6638986 C36.157993,35.2899006 36.1847604,34.9119987 36.1837473,34.5336076 C36.1583948,34.1267029 36.0209579,33.7339267 36.0022772,33.327022 C35.9689187,32.6078743 36.3065064,31.9240483 36.7228201,31.3490128 C36.9710071,31.0099255 37.2498839,30.6948569 37.4647125,30.3317509 C37.6515199,30.0166823 37.7876225,29.6677049 37.9891076,29.3625264 C38.4587949,28.6560945 39.2513921,28.2322354 40.0600014,28.0782332 C40.8686107,27.9242311 41.6999037,28.0217187 42.5111817,28.1630051 C43.2170469,28.2873371 43.9269151,28.4695965 44.6461237,28.5133953 C45.2639226,28.5529554 45.7683026,28.3311358 46.3353966,28.7747751 Z" id="Shape" fill="#472727" fill-rule="nonzero"></path>
            <path d="M40,41 L40.7201346,43.4293204 L41.9663489,47.8701351 C41.9663489,47.8701351 41.9786876,47.9153055 42,48 L40.429613,41.3783021 C40.2799203,41.264292 40.136401,41.137914 40,41 Z" id="Shape" fill="#000000" fill-rule="nonzero" opacity="0.1"></path>
            <path d="M30.0037576,68.9599532 C30.0037576,68.9599532 29.9026759,71.3931599 30.7490465,72 L33,68.709734 L31.1081128,68 L30.0037576,68.9599532 Z" id="Shape" fill="#FFB9B9" fill-rule="nonzero"></path>
            <path d="M26,69.7019011 C26.9037477,70.8054921 30.8340608,71 30.8340608,71 L34.730071,64.5881364 C34.730071,64.5881364 35.6536088,63.9190844 37.3806245,60.90904 C39.1076403,57.8989956 39.0548667,55.5786955 38.9638322,53.8474372 C38.8727978,52.1161788 37.7764265,47.1389835 37.7764265,47.1389835 C37.6088703,46.0188386 35.1826045,39 35.1826045,39 C34.927972,39.5324826 34.454329,39.9752985 33.898887,40.3422425 C32.4014364,41.323059 30.3076442,41.7244902 30.3076442,41.7244902 C26.9393699,42.2362806 27.5607789,45.8753718 27.5607789,45.8753718 C27.5607789,45.8753718 27.5198794,60.0247877 27.7309737,61.7160409 C27.9420681,63.407294 26,69.7019011 26,69.7019011 Z" id="Shape" fill="#000000" fill-rule="nonzero" opacity="0.1"></path>
            <polygon id="Shape" fill="#CBCDDA" fill-rule="nonzero" points="30 69.8467375 30.1354942 71 31.7885228 70.4233687 33 68.6783005 32.0913921 68"></polygon>
            <path d="M30,65.2548112 L30.7594582,65.3209805 L38.085007,65.9489876 C39.2603292,66.0503487 40.4466911,66.0004727 41.6048575,65.8010089 L45,65.2175157 C44.843064,64.7447058 44.7197571,64.4547638 44.7197571,64.4547638 C44.352639,64.6785364 42.2508174,64.9359953 41.163475,65.1537525 C40.5665601,65.2710211 39.9526776,65.3115656 39.3418963,65.2740604 C36.5907734,65.0882613 33.8689975,64.6613531 31.2190565,64 L30.8883699,64.3392682 L30,65.2548112 Z" id="Shape" fill="#000000" fill-rule="nonzero" opacity="0.1"></path>
            <g id="Group" opacity="0.1" transform="translate(29.000000, 64.000000)" fill="#000000" fill-rule="nonzero">
                <path d="M16.0266028,0.80016091 C16.0913076,0.767556248 16.1542248,0.731458762 16.2150811,0.692025316 L16.2335593,0.744228706 L16.0266028,0.80016091 Z" id="Shape"></path>
                <path d="M0.724848931,28.1432911 C0.724848931,28.1432911 1.95681651,23.423038 1.56269713,22.2617722 C1.56269713,22.2617722 2.27100958,17.3702532 1.85070744,15.9137975 C1.43040531,14.4573418 2.1400958,3.70936709 2.1400958,3.70936709 L2.37298452,1.69455696 L2.5107885,0.55835443 L2.5659101,0.0821518987 C2.5659101,0.0821518987 2.6596168,0.11278481 2.84151805,0.165696203 L3.00826087,0.215822785 L2.96967576,0.402405063 L2.83876197,1.53860759 L2.60587325,3.55341772 C2.60587325,3.55341772 1.89893884,14.3 2.31648489,15.7578481 C2.73403095,17.2156962 2.02985262,22.1058228 2.02985262,22.1058228 C2.42259396,23.2670886 1.19200442,27.9873418 1.19200442,27.9873418 C1.19200442,27.9873418 0.326595431,34.2893671 0.562240236,36.0632911 C0.797885041,37.8372152 1.11345615,42.7872152 1.11345615,42.7872152 C1.91685335,44.006962 3.43407517,43.8537975 4.19199705,43.6825316 C4.18372881,43.7034177 4.17821665,43.714557 4.17821665,43.714557 C4.17821665,43.714557 1.7418423,44.6140506 0.640788504,42.9473418 C0.640788504,42.9473418 0.326595431,37.9959494 0.0895725866,36.2220253 C-0.147450258,34.4481013 0.724848931,28.1432911 0.724848931,28.1432911 Z" id="Shape"></path>
                <path d="M6.93429624,36.1120253 C6.5208843,34.921519 7.32841562,31.0826582 7.32841562,31.0826582 C7.32841562,31.0826582 8.76708917,26.9792405 8.53144436,23.9340506 C8.43360354,22.6655696 8.44049374,20.9250633 8.48183493,19.3251899 C8.8166986,17.2644304 9.13502579,14.96 9.13502579,14.96 C9.13502579,14.96 8.76708917,20.7301266 9.00411201,23.7753165 C9.24113486,26.8205063 7.79970523,30.9239241 7.79970523,30.9239241 C7.79970523,30.9239241 6.98666175,34.7627848 7.40696389,35.9532911 C7.82726603,37.1437975 6.35827561,42.0687342 6.35827561,42.0687342 C6.46300663,43.2146835 9.15569639,43.068481 10.216787,42.9640506 L10.1768239,43.0740506 C10.1768239,43.0740506 6.01100958,43.6574684 5.88147384,42.2274684 C5.886986,42.2274684 7.35322034,37.3011392 6.93429624,36.1120253 Z" id="Shape"></path>
            </g>
            <path d="M25,69.7019011 C25.9037383,70.8054921 29.8340104,71 29.8340104,71 L33.7286607,64.5881364 C33.7286607,64.5881364 34.6521888,63.9190844 36.3805059,60.90904 C38.1088229,57.8989956 38.0547305,55.5786955 37.963697,53.8474372 C37.8726635,52.1161788 36.7763037,47.1389835 36.7763037,47.1389835 C36.6087493,46.0188386 34.1825088,39 34.1825088,39 C33.9278789,39.5324826 33.4542409,39.9752985 32.8988046,40.3422425 C31.4000503,41.323059 29.3089186,41.7244902 29.3089186,41.7244902 C25.9406794,42.2362806 26.562082,45.8753718 26.562082,45.8753718 C26.562082,45.8753718 26.5251408,60.0192697 26.732275,61.7105229 C26.9394092,63.4017761 25,69.7019011 25,69.7019011 Z" id="Shape" fill="#4C4C78" fill-rule="nonzero"></path>
            <path d="M34.5639489,42.5134256 L35.4001042,42.8506922 L34.8426674,43.2687912 L39,54 C38.9036207,52.2509523 37.8278197,47.2226145 37.8278197,47.2226145 C37.6624121,46.0909598 35.2672571,39 35.2672571,39 C35.0158896,39.5379541 34.5483199,39.9853201 34,40.3560346 L34.5639489,42.5134256 Z" id="Shape" fill="#000000" fill-rule="nonzero" opacity="0.1"></path>
            <polygon id="Shape" fill="#000000" fill-rule="nonzero" opacity="0.1" points="33 62.1795231 28.5793178 61 28 62.8597475 32.516784 64"></polygon>
            <path d="M30.3947456,43.258161 C30.3947456,43.258161 32.4411398,45.163529 31.6739145,49.3907238 C30.9066891,53.6179187 29.6675374,58.2207432 29.6675374,58.2207432 L33,67.322958 C33,67.322958 30.6776254,69.7101119 29.5364467,70 L26.2108836,62.7228555 C26.2108836,62.7228555 24.6571143,60.1996039 25.0697049,56.2418825 C25.4822955,52.2841611 26.978109,45.8780419 26.978109,45.8780419 C26.978109,45.8780419 26.9712094,41.9774816 30.3947456,43.258161 Z" id="Shape" fill="#000000" fill-rule="nonzero" opacity="0.1"></path>
            <path d="M30.4053372,43.258161 C30.4053372,43.258161 32.4520845,45.163529 31.6847268,49.3907238 C30.9173691,53.6179187 29.6780036,58.2207432 29.6780036,58.2207432 L33,67.322958 C33,67.322958 30.6813652,69.7101119 29.5372293,70 L26.2110925,62.7228555 C26.2110925,62.7228555 24.6570551,60.1996039 25.0697169,56.2418825 C25.4823787,52.2841611 26.9784502,45.8780419 26.9784502,45.8780419 C26.9784502,45.8780419 26.9784502,41.9774816 30.4053372,43.258161 Z" id="Shape" fill="#4C4C78" fill-rule="nonzero"></path>
            <path d="M32.4802995,68.0141184 C32.4802995,68.0141184 29.8079595,71.4947755 30.0110119,72.4318755 C30.2140643,73.3689755 30.996455,72.8642802 30.996455,72.8642802 L32.0543154,71.5014691 L33,68.9579119 C33,68.9579119 32.9062835,67.8641824 32.4802995,68.0141184 Z" id="Shape" fill="#000000" fill-rule="nonzero" opacity="0.1"></path>
            <path d="M33.4864259,68.0141026 C33.4864259,68.0141026 30.8075893,71.4947708 31.0110272,72.4318737 C31.2144651,73.3689767 31.9983414,72.8642798 31.9983414,72.8642798 L33.0525198,71.5028031 L34,68.9592379 C34,68.9592379 33.9075282,67.8641661 33.4864259,68.0141026 Z" id="Shape" fill="#000000" fill-rule="nonzero" opacity="0.1"></path>
            <path d="M32.4850042,68.0141026 C32.4850042,68.0141026 29.8075952,71.4947708 30.0110328,72.4318737 C30.2144703,73.3689767 30.9983451,72.8642798 30.9983451,72.8642798 L32.0525216,71.5028031 L33,68.9592379 C33,68.9592379 32.9075284,67.8641661 32.4850042,68.0141026 Z" id="Shape" fill="#474463" fill-rule="nonzero"></path>
        </g>
    </g>
</svg>