<svg xmlns="http://www.w3.org/2000/svg" xmlns:xlink="http://www.w3.org/1999/xlink" width="714.22" height="183.56" viewBox="0 0 714.22 183.56"><defs><style>.a{fill:#00c4b1;}.b{fill:#fff;}</style><symbol id="a" viewBox="0 0 464.22 82.36"><path class="b" d="M112.84,24.07l0,31c0,8-4.14,12.88-11.24,12.89S90.28,63.16,90.27,55.1l0-31H74.91l0,32.75c0,15.3,10.68,25.52,26.69,25.5s26.57-10.25,26.56-25.55l0-32.75Z"/><path class="b" d="M176,24l0,31c0,8-4.15,12.87-11.24,12.88S153.39,63.09,153.38,55l0-31-15.33,0,0,32.74c0,15.31,10.68,25.52,26.69,25.51S191.32,72,191.31,56.74l0-32.75Z"/><path class="b" d="M233.41,22.6A24.34,24.34,0,0,0,214.64,31l-3-7H201.13l.06,56.67h15.32l0-29.79c0-9.12,4.8-14.78,12.71-14.79,6.63,0,9.88,4.12,9.89,12.69l0,31.87,15.33,0,0-34.35C254.39,31.9,246.33,22.59,233.41,22.6Z"/><polygon class="b" points="264.27 23.91 264.32 80.59 279.65 80.57 279.59 23.89 264.27 23.91"/><path class="b" d="M27.79,7.37,0,7.4V80.87l27.87,0C49.4,80.81,64.16,65.28,64.14,44S49.41,7.35,27.79,7.37Zm-.34,58.72H15.32v-44H27.41c12.62,0,21.39,9,21.4,21.87S40.08,66.07,27.45,66.09Z"/><path class="b" d="M363.7,22.21c-17.55,0-30.62,12.77-30.6,30s13.11,29.93,30.67,29.91,30.62-12.89,30.6-30S381.17,22.19,363.7,22.21Zm.05,45.47c-8.84,0-15.11-6.34-15.12-15.52s6.25-15.54,15.09-15.55S378.83,43,378.84,52.13,372.59,67.67,363.75,67.68Z"/><path class="b" d="M455.73,16.43a8.24,8.24,0,0,0,8.49-8.13,8.49,8.49,0,0,0-17,0A8.19,8.19,0,0,0,455.73,16.43Z"/><polygon class="b" points="448.04 23.81 448.1 80.48 463.42 80.47 463.36 23.79 448.04 23.81"/><path class="b" d="M321,66.88c-5.58,0-8.73-3.14-8.73-8.61l0-22.09H327.6V23.85H312V9.07H309L286.65,32.9v3.31H296.9l0,24.12c0,12.57,7.69,20.23,20.16,20.21H328V66.88Z"/><path class="b" d="M272,0a8.18,8.18,0,1,0,8.48,8.22A8.2,8.2,0,0,0,272,0Z"/><path class="b" d="M433.18,23.42c-7.28,0-12.4,2.26-16.43,7.28L414,23.76H404.2l.05,56.67h15.33l0-29.45c0-9.26,3.4-13.09,12-13.1h6.65V23.42Z"/></symbol><symbol id="b" viewBox="0 0 201.17 183.56"><path class="a" d="M158.26,104.21c20.64-20.63,27.59-27.58,27.59-45.55a43.37,43.37,0,0,0-74-30.66L66,73.8,78.07,85.86C86,93.8,94,98.17,100.53,98.17h0a24.44,24.44,0,0,0,17.22-41.73l-9.08-9.08,10.84-10.84,9.08,9.08a39.77,39.77,0,0,1-28,67.89h-.07c-10.8,0-22.31-5.8-33.3-16.79L44.35,73.8,101,17.16a58.69,58.69,0,0,1,100.18,41.5c0,24.32-10.72,35-32.08,56.39l-.71.71-67.79,67.8L32.07,115C10.72,93.69,0,83,0,58.66a58.69,58.69,0,0,1,91.74-48.5L80.65,21.25A43.38,43.38,0,0,0,15.32,58.66c0,18,7,24.92,27.59,45.55l57.68,57.68,57.67-57.68"/></symbol></defs><title>logo-duunitori-rgb-horisontal-inverse</title><use width="464.22" height="82.36" transform="translate(250 48.87)" xlink:href="#a"/><use width="201.17" height="183.56" xlink:href="#b"/></svg>