<svg xmlns="http://www.w3.org/2000/svg" width="115" height="84">
  <defs>
    <linearGradient id="a" x1="50%" x2="50%" y1="100%" y2="0%">
      <stop offset="0%" stop-color="gray" stop-opacity=".3"/>
      <stop offset="54%" stop-color="gray" stop-opacity=".1"/>
      <stop offset="100%" stop-color="gray" stop-opacity=".1"/>
    </linearGradient>
    <linearGradient id="b" x1="31912%" x2="31912%" y1="30968%" y2="21215%">
      <stop offset="0%" stop-color="gray" stop-opacity=".3"/>
      <stop offset="54%" stop-color="gray" stop-opacity=".1"/>
      <stop offset="100%" stop-color="gray" stop-opacity=".1"/>
    </linearGradient>
    <linearGradient id="c" x1="33256%" x2="33256%" y1="30474%" y2="24612%">
      <stop offset="0%" stop-color="gray" stop-opacity=".3"/>
      <stop offset="54%" stop-color="gray" stop-opacity=".1"/>
      <stop offset="100%" stop-color="gray" stop-opacity=".1"/>
    </linearGradient>
    <linearGradient id="d" x1="80365%" x2="80365%" y1="79685%" y2="18450%">
      <stop offset="0%" stop-color="gray" stop-opacity=".3"/>
      <stop offset="54%" stop-color="gray" stop-opacity=".1"/>
      <stop offset="100%" stop-color="gray" stop-opacity=".1"/>
    </linearGradient>
  </defs>
  <g fill="none" fill-rule="evenodd">
    <path fill="#00C4B1" fill-rule="nonzero" d="M7 12.8c1.1 1.9.6 4.3-.6 6-1.2 1.9-2.8 3.3-4.1 5-2.6 3.4-3.2 8.8 0 11.7.7.6 1.5 1 2 1.9.6 1 .1 2.4-.3 3.6v.1a8.4 8.4 0 0 0 5.3 11c2.6.7 4.9 2 6.6 4 1.5 1.8 2.4 4 3.3 6.2 1.8 3.8 4.1 7.4 7.3 10.2A17 17 0 0 0 38 77c9.7-.4 16.8-10.5 26.4-11 .7 0 1.4 0 2 .3.8.6 1 1.6 1.4 2.6 1.8 4.8 7.3 7 12.3 8.7l9.2 3.2c5 1.8 10.3 3.5 15.5 2.7 5.3-.8 10.4-5 10.2-10.4-.2-4.3-3.8-8.1-3.3-12.4.3-3 2.5-5.5 3-8.5.3-3-1.4-6-3.4-8.5a72.2 72.2 0 0 0-21.5-16.1c-5.5-3.2-11-6.3-17-8.6C58 13.4 42 13.7 26.4 12.2c-2.7-.3-5.5-.6-8-1.8-1.9-.9-3.4-3-5.4-3.4A9 9 0 0 0 7.7 8C5 9.5 5.8 10.7 7 12.8z" opacity=".1"/>
    <path fill="url(#a)" fill-rule="nonzero" d="M103.3 0H19.5a3 3 0 0 0-3 3v59.3a3 3 0 0 0 3 3h83.8a3 3 0 0 0 3-3V3a3 3 0 0 0-3-3z"/>
    <path fill="#F6F7F9" fill-rule="nonzero" d="M106.2 6.8v55.6a3 3 0 0 1-2.9 2.9H19.5a3 3 0 0 1-3-3V6.9h89.7z"/>
    <path fill="#DDE1EC" fill-rule="nonzero" d="M39 34.1v29.2H19.5a3 3 0 0 1-3-2.9V34.1H39zM44.8 13.6h36.1v1H44.8zM44.8 20.5h22.4v1H44.8zM72.1 20.5h7.8v1h-7.8z"/>
    <path fill="#00C4B1" fill-rule="nonzero" d="M23.4 45.8H31v1h-7.7z" opacity=".1"/>
    <path fill="#DDE1EC" fill-rule="nonzero" d="M72.1 30.2h7.8v1h-7.8zM72.1 40h7.8v1h-7.8zM72.1 23.4h7.8v1h-7.8zM84.8 23.4h7.8v1h-7.8zM72.1 26.3h7.8v1h-7.8zM84.8 26.3h7.8v1h-7.8zM84.8 32.2h7.8v1h-7.8zM84.8 36.1h7.8v1h-7.8zM84.8 42.9h7.8v1h-7.8zM44.8 23.4h22.4v1H44.8zM44.8 26.3h22.4v1H44.8zM44.8 30.2h22.4v1H44.8zM44.8 33.1h22.4v1H44.8zM44.8 36.1h22.4v1H44.8zM44.8 40h22.4v1H44.8zM44.8 42.9h22.4v1H44.8z"/>
    <path fill="#00C4B1" fill-rule="nonzero" d="M16.6 5.8H39V35H16.6z"/>
    <path fill="#E8EAF1" fill-rule="nonzero" d="M106.2 3.7c0-1.5-1.3-2.7-2.9-2.7H19.5c-1.6 0-3 1.2-3 2.7v3.1h89.7v-3z"/>
    <circle cx="20.5" cy="2.9" r="1" fill="#FF5252" fill-rule="nonzero"/>
    <circle cx="23.4" cy="2.9" r="1" fill="#FF0" fill-rule="nonzero"/>
    <circle cx="27.3" cy="2.9" r="1" fill="#69F0AE" fill-rule="nonzero"/>
    <path fill="#FFF" fill-rule="nonzero" d="M34.1 21a6.3 6.3 0 0 1-2.6 5v.1l-.3.2H31l-.1.1a6 6 0 0 1-.5.3h-.1l-.2.1a6.2 6.2 0 0 1-2.2.5h-.2c-.5 0-1 0-1.5-.2h-.1a7.3 7.3 0 0 1-1-.3l-.2-.1-.1-.1h-.1l-.1-.1c-.5-.3-1-.6-1.3-1l-.2-.1a6.3 6.3 0 1 1 11-4.4z"/>
    <path fill="url(#b)" fill-rule="nonzero" d="M32.7 23a2 2 0 0 1-.1.3v-.1-1.7c.1-.5-.6-.3-1 0l-.3.5c-.3-.4-.6-.5-1-.5a3 3 0 0 1-1.8-.9v-.2-.1c.2-.2.4-.5.4-.9v-.3-.2-.1h.1l.4-.5v-.1l.1-.6-.1-.4-.5.2-.2-.1-.3-.4c-.2-.2-.4-.3-.7-.3a2.6 2.6 0 0 0-1.2.2l-.2.3V17.4c0 .2-.2.3-.3.3l-.3.2a1 1 0 0 0-.4.6v.7a3.7 3.7 0 0 0 .5 1.3v.1l.4.3.2.1c.2-.1.2-.2.2-.4a1.7 1.7 0 0 1 0 .3 6.8 6.8 0 0 1-1.4 1c-.5.1-.8.6-1 1a4 4 0 0 1-.5 1.1l-.3 1.3.2.2 1.3 1h.2v-.2-.1-.1a17.7 17.7 0 0 1 0 .5h.2l.1.1a5.7 5.7 0 0 0 1 .4h.1l1.6.2h.1a6.3 6.3 0 0 0 2.6-.6l-.1-.7.1-.3v-.2l.6.9.2-.1.2-.2L33 25l.1-.2-.4-1.8zm-1 .5z"/>
    <path fill="url(#c)" fill-rule="nonzero" d="M32.2 23.2zm-6.6 3a29.6 29.6 0 0 0 0-.6l-.3.4h.2v.1h.1v.1zm1.5-5.7z"/>
    <path fill="#E0A17E" fill-rule="nonzero" d="M28.3 19.5s-.5 1.8.7 2.7c1.2 1-2.7 1.6-3.4.9-.7-.8.4-1.2.4-1.2s.6-.5 0-1.8l2.3-.6z"/>
    <path fill="#F0F1F5" fill-rule="nonzero" d="M29.2 27.2h-3V27l-.7-.2-.2-1.6.5-2.2.3-1.2v-.4l.2.1 1 1.2.8-1 .3-.3h.1v.3l.2 1.1.3 2.2.2 2z"/>
    <path fill="#000" fill-rule="nonzero" d="M32.2 26.2l-.3.1-.2.1a1.6 1.6 0 0 1-.6-.7l-.1.1-.2.4.2.6h-.1a7.5 7.5 0 0 1-2.5.5l-.1-1.4.1-2.5.1-1.3v-.7l.2.1c.5.4 1.1.7 1.8.7.4 0 .7.2 1 .4l.3.9v.4l.4 2.3z" opacity=".1"/>
    <path fill="#293158" fill-rule="nonzero" d="M32.2 26H32l-.2.2h-.2a1.9 1.9 0 0 1-.6-.9v.1l-.2.2-.1.4.2.7h-.2a6.7 6.7 0 0 1-2.5.6v-1.7l.1-2.8v-1.5l.1-.7v-.1a3 3 0 0 0 2 .8c.4 0 .7.2 1 .5l.3 1v.6l.1.1.3 2.5z"/>
    <path fill="#000" fill-rule="nonzero" d="M26.3 21.4V22.6l-.1.8v3.9a7 7 0 0 1-1-.4H25l-.1-.7v.1l-.1.1-.1.1v.2h-.2l-1.2-1 .3-1.3.5-1c.1-.4.5-.8.9-1 .5-.2.9-.6 1.2-1z" opacity=".1"/>
    <path fill="#293158" fill-rule="nonzero" d="M26.3 21.5l-1.3.8c-.4.2-.7.6-.8 1l-.5 1-.3 1.3v.1l1.2 1 .3-.5a8.8 8.8 0 0 0 .1.7h.2a5.1 5.1 0 0 0 1 .4c-.2-2-.2-3.2-.1-3.9v-.9l.2-.7v-.3z"/>
    <path fill="#000" fill-rule="nonzero" d="M27.2 21.4c-.2 0-.5 0-.7-.2 0-.3 0-.6-.2-1l2-.7v1.4c-.4.4-.7.5-1.1.5z" opacity=".1"/>
    <circle cx="26.8" cy="19" r="1.5" fill="#E0A17E" fill-rule="nonzero"/>
    <path fill="#000" fill-rule="nonzero" d="M30.7 27.2l-.5-1 .6-.8c0 .1 0 .2.2.3l-.3.5.4.9h-.2-.2z" opacity=".1"/>
    <path fill="#E0A17E" fill-rule="nonzero" d="M33.1 24s-.2-1.6 0-2.3c.2-.7-2.4.1-1.8 1.1l1 1.6.8-.5z"/>
    <path fill="#000" fill-rule="nonzero" d="M33.1 24.2l-1.1 1-.3.1-.5-.6.4-2v.1h.1c.2.2.6.5.9 0v-.4.2l.5 1.6z" opacity=".1"/>
    <path fill="#293158" fill-rule="nonzero" d="M33.1 25.1l-1.1 1c-.2 0-.2.1-.3.2l-.5-.6.4-2v.1h.1l.1.1c.2.2.6.3.8-.2v-.3.2l.5 1.5z"/>
    <path fill="#000" fill-rule="nonzero" d="M25.3 26l.3-.7.2 2h-.1l-.2-.1v-1-.3l-.2.2zM27.2 18.8l.3-.1c.2.2.3.4.5.4h.3c.2 0 .3 0 .5-.2.3-.2.4-.8.4-1.2l-.1-.5c-.2 0-.3.3-.5.3l-.1-.1-.3-.5a1 1 0 0 0-.7-.3 2 2 0 0 0-1 .2c-.2 0-.2.2-.3.4v.3c0 .2 0 .3-.2.4-.1 0-.2 0-.3.2-.2.1-.3.3-.3.6v.7a4.8 4.8 0 0 0 .4 1.6l.4.4h.2c.2-.1.2-.4.1-.6v-.6-.2l.1-.3.2-.6-.1-.5c.1.2.3.2.5.2z" opacity=".1"/>
    <path fill="#463E3B" fill-rule="nonzero" d="M27.2 18.8l.3-.1c.2.2.3.4.5.4h.3c.2 0 .3 0 .5-.2.3-.2.4-.8.4-1.2l-.1-.5c-.2 0-.3.3-.5.3l-.1-.1-.3-.5a1 1 0 0 0-.7-.3 2 2 0 0 0-1 .2c-.2 0-.2.2-.3.4v.3c0 .2 0 .3-.2.4-.1 0-.2 0-.3.2-.2.1-.3.3-.3.6v.7a4.8 4.8 0 0 0 .4 1.6l.4.4h.2c.2-.1.2-.4.1-.6v-.6-.2l.1-.3.2-.6-.1-.5c.1.2.3.2.5.2z"/>
    <ellipse cx="19" cy="58.5" fill="#CD9494" fill-rule="nonzero" rx="2.4" ry="1"/>
    <ellipse cx="18" cy="59" fill="#000" fill-rule="nonzero" opacity=".1" rx="1.5" ry="1"/>
    <path fill="#FF7361" fill-rule="nonzero" d="M15.7 58.5s2.6 1.7 4.8.2c0 0-.3 6-1.8 6.6h-2s-1.6-4-1-6.8z"/>
    <path fill="#00C4B1" fill-rule="nonzero" d="M21.3 47.5c.8 2.6-2.5 10-2.5 10s-7.1-4.8-7.9-7.5c-.8-2.6 1-5.3 3.8-6 2.9-.7 5.8.9 6.6 3.5z"/>
    <path fill="#000" fill-rule="nonzero" d="M21.3 47.5c.8 2.6-2.5 10-2.5 10s-7.1-4.8-7.9-7.5c-.8-2.6 1-5.3 3.8-6 2.9-.7 5.8.9 6.6 3.5z" opacity=".1"/>
    <path stroke="#535461" d="M14.6 43.9s4.2 6 3.9 13.6"/>
    <path fill="#00C4B1" fill-rule="nonzero" d="M22.1 52.9s-4-2-3.5 5.6c0 0 3.4-.1 4.6-2.7.5-1 0-2.3-1-2.9z"/>
    <path stroke="#535461" d="M22.4 52.6s-.6 3.5-3.9 4.9"/>
    <path fill="#000" fill-rule="nonzero" d="M21 58.7c0 1.2-.6 5-2.2 5.4h-2.2v.2h2.6c1.9-.5 2.2-5.8 2.2-5.8a5 5 0 0 1-.4.2z" opacity=".1"/>
    <path fill="#DDE1EC" fill-rule="nonzero" d="M44.8 49.7h22.4v12.7H44.8z"/>
    <path fill="url(#d)" fill-rule="nonzero" d="M103.3 24.1V24c0-.5-.5-.9-1-1.1l-1.5-.6c-.7-.5-.9-1.4-1-2.3a11.5 11.5 0 0 1 0-1.7l.2-1.4c0-.4-.1-.9-.3-1.3-.4-.9-1.4-1.3-2.3-1.7l-1-.3-1.2.3-1.8.6-1 .1c-.7.3-.8.8-.8 1.5v.1l-.2-.2-.3-.2c-.2 0-.3-.2-.5-.3h-.3a3.8 3.8 0 0 0-4 .8l-.7.8c-3.3-.8-3.5 2.1-3.5 2.1l.3 1-25.3 26-2.5 7.9 1.4-.5 6.6-2.4 23.5-24a44 44 0 0 1 3.6 3s-1.2.5-.8 3.3c.6 3.3-.2 8.1-.2 8.1v3.1h.1v.3c-.3 1.6-.3 3.1-.1 4.7.4 3.3 2 7.8 2 7.8s.5 1.5.6 2.8l.2.7c.3.7.4 1.5.5 2.2 0 1.4.1 3.5 1 5.6l1 3.2c-.5.6-1.1 1.3-1.6 1.4-1 .1-2.7.2-1.5 1.8l.1.1c-.9.1-1.8.5-.9 1.7 1.2 1.5 8 .8 8 .8V76h.8s.2-3.7-.6-4.1h-.5l-.2-1.5h.3v-5.5s-.4-3.4-1.8-5a3 3 0 0 1-.4-.6 60.8 60.8 0 0 0 .2-2s.7-1 3.4-7c1.6-3.5 1.2-5.5.7-6.6a42 42 0 0 1-.8-3.5c-.4-2.6 0-5.1 0-5.1l2.5-6.2c.2-.4.3-.9.3-1.3l.4-.7.7-2 .2-.8zm-10.8-3.8l.3.4-.3-.4zm-4 4.3l2.3-2.2 2.2 2-.2.9c-.3.1-.7.2-1.2-.1-.7-.4-2.1-.5-3-.6z"/>
    <path fill="#FEBDD5" fill-rule="nonzero" d="M87 16.6s-1.7.9-1.1 2.2c0 0 1.7.5 2.4 1.8a54 54 0 0 0 6.2 5.7l4-2s-1.5-1.7-5.8-3c0 0-2.6-2.7-3.5-3.2L87 16.6z"/>
    <path fill="#000" fill-rule="nonzero" d="M87 16.6s-1.7.9-1.1 2.2c0 0 1.7.5 2.4 1.8a54 54 0 0 0 6.2 5.7l4-2s-1.5-1.7-5.8-3c0 0-2.6-2.7-3.5-3.2L87 16.6z" opacity=".1"/>
    <path fill="#00C4B1" fill-rule="nonzero" d="M58 46.8l28.3-29.1a3.7 3.7 0 0 1 5.2-.1 3.6 3.6 0 0 1 0 5L63.4 51.8l-7.7 2.8 2.4-7.8z"/>
    <path fill="#FFF" fill-rule="nonzero" d="M90 17a3.6 3.6 0 0 1 0 5L61.8 51.4l-5.9 2-.3 1.3 7.7-2.8 28.3-29.2a3.6 3.6 0 0 0-.1-5c-.6-.6-1.4-1-2.2-1l.6.4z" opacity=".1"/>
    <path fill="#EFC8C4" fill-rule="nonzero" d="M58 46.8l5.3 5L57 54l-1.4.5.8-2.8z"/>
    <path fill="#727A9C" fill-rule="nonzero" d="M56.6 51.7c.2 0 .4 0 .6.2.2.1.3.4.3.6 0 .2-.2.3-.3.4-.2.4-.2.8 0 1.1l-1.6.6 1-3z"/>
    <path fill="#FFB9B9" fill-rule="nonzero" d="M97 70.2s.1 3 .4 3.3c.4.4-2.9.6-2.9.6l.5-4h2z"/>
    <path fill="#000" fill-rule="nonzero" d="M97 70.2s.1 3 .4 3.3c.4.4-2.9.6-2.9.6l.5-4h2z" opacity=".1"/>
    <path fill="#CBCDDA" fill-rule="nonzero" d="M96.8 72s-.4 0-1.9.8c0 0-1-.2-1.4-1.7 0 0-1.3 2.2-2.1 2.3-.8.1-2.5.3-1.4 1.7s7.4.8 7.4.8.2-3.5-.6-4z"/>
    <path fill="#000" fill-rule="nonzero" d="M96.8 72s-.4 0-1.9.8c0 0-1-.2-1.4-1.7 0 0-1.3 2.2-2.1 2.3-.8.1-2.5.3-1.4 1.7s7.4.8 7.4.8.2-3.5-.6-4z" opacity=".1"/>
    <path fill="#FFB9B9" fill-rule="nonzero" d="M96.5 74.7L96 76l-2.5-.9.1-1.3v-.3l.1-1s2.2-.6 2.2-.3l.1.9a55.8 55.8 0 0 0 .4 1.6z"/>
    <path fill="#4C4C78" fill-rule="nonzero" d="M94.9 59c-.2.3-.4 1 0 1.7l.4.7c1.4 1.5 1.7 5 1.7 5v5.5l-.9.1-1.4.1-2.3-9.4s-1.2-7-.6-8.2c.6-1.2 1.1-8.8 1.1-8.8l.5-.5 1.3-1.3h3.5c.2.2.5.4.6.7.6 1 1.1 3.2-.5 7-2.5 6.1-3.2 7-3.2 7l-.2.4z"/>
    <path fill="#000" fill-rule="nonzero" d="M94.9 59c-.2.3-.4 1 0 1.7l.4.7c1.4 1.5 1.7 5 1.7 5v5.5l-.9.1-1.4.1-2.3-9.4s-1.2-7-.6-8.2c.6-1.2 1.1-8.8 1.1-8.8l.5-.5 1.3-1.3h3.5c.2.2.5.4.6.7.6 1 1.1 3.2-.5 7-2.5 6.1-3.2 7-3.2 7l-.2.4zM96.5 73.5l-3 .6.2-1.3s2.6-1 2.6-.5l.2 1.2z" opacity=".1"/>
    <path fill="#4C4C78" fill-rule="nonzero" d="M95.4 50.7a459 459 0 0 0 0 10.5c-.1.6.3 1.9.3 1.9 1.5 4.1 1 7.8 1 7.8v2.8l-3 .4s.6-.4-.8-4c-.8-2.2-1-4.3-1-5.6a6 6 0 0 0-.4-2.2l-.1-.8-.7-2.8s-1.5-4.5-1.9-7.8a18.3 18.3 0 0 1 .3-5.9s6.1-3.9 8.4-1.2l.5 1c.2.2.3.6.3.9.8 3.6-3 5-3 5z"/>
    <circle cx="95" cy="20" r="3.4" fill="#FFB9B9" fill-rule="nonzero"/>
    <path fill="#FFB9B9" fill-rule="nonzero" d="M92.8 21.4s1.4 3.6 0 5.5 4.4 1.3 4.4 1.3l2.2-2.5s-2.6 0-2.7-4.3c-.2-4.3-3.9 0-3.9 0z"/>
    <path fill="#000" fill-rule="nonzero" d="M99.4 45l-1.4.4c-.7 0-1.6 0-2.2-.4-.3-.2-1-.2-2-.2-2 .2-4.6.9-5.1 1l.2-1s6-3.5 8.3-1h1.3c.3.1.6.3.7.6l.2.6zM96.5 73.9L96 75l-2.5-.8.1-1.1c.4 1 1.2 1.2 1.2 1.2.8-.5 1.3-.6 1.5-.7v.3z" opacity=".1"/>
    <path fill="#CBCDDA" fill-rule="nonzero" d="M96.8 74s-.4 0-1.9.7c0 0-1-.2-1.4-1.6 0 0-1.3 2.1-2.1 2.3-.8 0-2.5.2-1.4 1.6 1.1 1.5 7.4.8 7.4.8s.2-3.5-.6-3.9z"/>
    <path fill="#FFB9B9" fill-rule="nonzero" d="M81.9 19.5s0-2.5 2.9-1.9L84 19l-2.2.5z"/>
    <path fill="#FEBDD5" fill-rule="nonzero" d="M96.9 27.1s-3.1-.5-4-1c0 0-.6 1-1.8.5-1-.7-3.8-.6-3.8-.6s-2.2-1.2-2.6-3.8c0 0-.5-1.7-.4-2.1 0 0-1.6-1.7-2.4.6.3 1.5.5 1.4.5 2.6l1 2.8s0 1 1.9 2.2c1.8 1.2 4 3.1 4 3.1s-1.2.6-.8 3.3c.5 3.3-.2 8-.2 8v3.1s6.3-1.8 7.4-.9c1.1 1 3.7 0 3.7 0s-.3-1-.7-3.6c-.5-2.5 0-5 0-5l2.4-6c.8-1.8-.5-4.2-1.9-5-1.3-1-1.8-.4-1.8-.4s2.3 1.7-.5 2.2z"/>
    <path fill="#000" fill-rule="nonzero" d="M91 18.7v.3l.3.4c.5.5 1 1 1 1.7.2.4.2.9.2 1.3 0 1.8-.1 3.8-1.2 5.2L89.8 29l-.1.2v.3c.2.5.7.8 1.2 1 .2.2.4.3.7.3.6 0 1-.6 1.5-.8.7-.4 1.6 0 2.3.5l1.8.6c.8.1 1.7.2 2.4-.3.4-.3.6-.7.7-1.2 0-.3 0-.6.3-.8.1-.2.3-.2.4-.3.2-.1.3-.4.4-.6l.8-2.2.1-.7c0-.5-.5-.9-1-1l-1.4-.7c-.7-.5-.9-1.4-1-2.3v-1.8c.1-.9.3-1.8-.1-2.6-.4-.9-1.4-1.3-2.2-1.7a3 3 0 0 0-1-.3 3 3 0 0 0-1.2.3l-1.8.6-1 .1c-1.2.4-.6 2.1-.6 3z" opacity=".1"/>
    <path fill="#B96B6B" fill-rule="nonzero" d="M91 18.7v.3l.3.4c.5.5 1 1 1 1.7.2.4.2.9.2 1.3 0 1.8-.1 3.8-1.2 5.2L89.8 29l-.1.2v.3c.2.5.7.8 1.2 1 .2.2.4.3.7.3.6 0 1-.6 1.5-.8.7-.4 1.6 0 2.3.5l1.8.6c.8.1 1.7.2 2.4-.3.4-.3.6-.7.7-1.2 0-.3 0-.6.3-.8.1-.2.3-.2.4-.3.2-.1.3-.4.4-.6l.8-2.2.1-.7c0-.5-.5-.9-1-1l-1.4-.7c-.7-.5-.9-1.4-1-2.3v-1.8c.1-.9.3-1.8-.1-2.6-.4-.9-1.4-1.3-2.2-1.7a3 3 0 0 0-1-.3 3 3 0 0 0-1.2.3l-1.8.6-1 .1c-1.2.5-.6 2.1-.6 3z"/>
    <path fill="#000" fill-rule="nonzero" d="M88.7 36l3-.8c2.4-.6 6.7.9 6.7.9" opacity=".1"/>
  </g>
</svg>
