<svg xmlns="http://www.w3.org/2000/svg" width="115" height="88">
  <defs>
    <linearGradient id="a" x1="50%" x2="50%" y1="100%" y2="0%">
      <stop offset="0%" stop-color="gray" stop-opacity=".25"/>
      <stop offset="54%" stop-color="gray" stop-opacity=".12"/>
      <stop offset="100%" stop-color="gray" stop-opacity=".1"/>
    </linearGradient>
    <linearGradient id="b" x1="35246%" x2="35246%" y1="50880%" y2="38780%">
      <stop offset="0%" stop-color="gray" stop-opacity=".25"/>
      <stop offset="54%" stop-color="gray" stop-opacity=".12"/>
      <stop offset="100%" stop-color="gray" stop-opacity=".1"/>
    </linearGradient>
    <linearGradient id="c" x1="30102%" x2="40350%" y1="68830%" y2="68830%">
      <stop offset="0%" stop-color="gray" stop-opacity=".25"/>
      <stop offset="54%" stop-color="gray" stop-opacity=".12"/>
      <stop offset="100%" stop-color="gray" stop-opacity=".1"/>
    </linearGradient>
    <linearGradient id="d" x1="105117%" x2="105117%" y1="86800%" y2="32500%">
      <stop offset="0%" stop-color="gray" stop-opacity=".25"/>
      <stop offset="54%" stop-color="gray" stop-opacity=".12"/>
      <stop offset="100%" stop-color="gray" stop-opacity=".1"/>
    </linearGradient>
    <linearGradient id="e" x1="47851%" x2="47851%" y1="56815%" y2="5457%">
      <stop offset="0%" stop-color="gray" stop-opacity=".25"/>
      <stop offset="54%" stop-color="gray" stop-opacity=".12"/>
      <stop offset="100%" stop-color="gray" stop-opacity=".1"/>
    </linearGradient>
    <linearGradient id="f" x1="-240229%" x2="-240229%" y1="26780%" y2="14700%">
      <stop offset="0%" stop-color="gray" stop-opacity=".25"/>
      <stop offset="54%" stop-color="gray" stop-opacity=".12"/>
      <stop offset="100%" stop-color="gray" stop-opacity=".1"/>
    </linearGradient>
  </defs>
  <g fill="none" fill-rule="evenodd">
    <path fill="#00C4B1" fill-rule="nonzero" d="M108.13 47.26c-4.05 5.54-2.71 13.44-.38 19.74.79 2.11 1.68 4.34 1.27 6.64-.5 2.8-2.82 4.9-5.25 6.05a13.92 13.92 0 0 1-13.58-.88c-3.4-2.27-5.8-6.04-9.28-8.2-5.81-3.61-13.36-2-19.83.76-4.58 1.96-9.6 4.47-14.05 2.67-3.14-1.27-5.26-4.5-6.37-7.95-.54-1.67-.91-3.48-1.98-4.78a7.32 7.32 0 0 0-2.34-1.77C28.44 55.42 18.3 58 10.65 53.4 5.5 50.3 2.27 44.25.94 37.91-.4 31.57-.06 24.87.46 18.3c.38-4.68.98-9.68 3.8-13.35C7.23 1.06 12.22-.48 16.69.13c4.46.6 8.46 3.08 11.96 6.04 4.38 3.68 8.4 8.31 13.85 9.7 3.7.96 7.65.29 11.5-.01 6.45-.5 12.87.07 19.25.72 6.11.62 12.26 1.31 18.05 3.34 4.1 1.43 7.34 4.15 11.2 6 2.5 1.21 5.27 1.5 7.64 3.05 2.91 1.93 5.55 5.33 4.7 9.42-.81 3.89-4.57 5.92-6.71 8.87z" opacity=".1"/>
    <g opacity=".5">
      <path stroke="#535461" stroke-width="2" d="M86.55 72.04s.33-9.83 5.62-15.38a14.92 14.92 0 0 0 4.07-8.5c.18-1.51.22-3.04.12-4.57"/>
      <path fill="#00C4B1" fill-rule="nonzero" d="M99.68 40.07c-.37 1.1-3.4 3.62-3.4 3.62s-.92-3.84-.56-4.94a2.09 2.09 0 1 1 3.96 1.32zM100.94 47.24c-.9.72-4.8 1.19-4.8 1.19s1.3-3.73 2.2-4.46a2.07 2.07 0 0 1 3.43 1.3 2.1 2.1 0 0 1-.83 1.97zM97.37 57.57c-1.14.17-4.74-1.4-4.74-1.4s3-2.56 4.13-2.73c.74-.11 1.47.18 1.94.77a2.1 2.1 0 0 1-1.33 3.37zM92.91 64.78c-1.09.36-4.9-.58-4.9-.58s2.51-3.03 3.6-3.4a2.1 2.1 0 1 1 1.3 3.98zM91.91 47.26c.54 1.02 3.93 3.03 3.93 3.03s.3-3.94-.23-4.97a2.08 2.08 0 1 0-3.7 1.93zM86.81 55.75c.81.82 4.64 1.72 4.64 1.72s-.88-3.85-1.69-4.67a2.08 2.08 0 0 0-2.94 0 2.1 2.1 0 0 0 0 2.95zM82.98 64.7c.66.94 4.29 2.48 4.29 2.48s-.22-3.95-.88-4.9a2.08 2.08 0 0 0-3.64.3c-.32.7-.22 1.5.24 2.12z"/>
      <path stroke="#535461" stroke-width="2" d="M87.72 67.97s-3-4.39-2.48-8.51a8.1 8.1 0 0 0-.95-5.01c-.4-.72-.88-1.4-1.41-2.04"/>
      <path fill="#00C4B1" fill-rule="nonzero" d="M83.2 49.8c.19.6-.32 2.68-.32 2.68s-1.63-1.37-1.83-1.97c-.19-.6.13-1.23.73-1.42.59-.2 1.22.13 1.42.72zM86.04 52.52c-.16.6-1.71 2.07-1.71 2.07s-.63-2.04-.47-2.65a1.13 1.13 0 1 1 2.18.58zM87.8 58.18c-.45.44-2.52.91-2.52.91s.48-2.08.92-2.52a1.12 1.12 0 0 1 1.89.51c.1.4 0 .81-.3 1.1zM88.16 62.76c-.36.5-2.33 1.33-2.33 1.33s.13-2.14.5-2.65a1.13 1.13 0 0 1 1.94.19c.16.36.12.8-.11 1.12zM82.12 55.44c.56.28 2.67.06 2.67.06s-1.12-1.82-1.68-2.1a1.12 1.12 0 0 0-1.51.53c-.27.56-.04 1.24.52 1.51zM82.62 60.8c.61.09 2.57-.76 2.57-.76s-1.62-1.39-2.23-1.48a1.13 1.13 0 1 0-.34 2.24zM83.81 65.93c.6.2 2.66-.3 2.66-.3s-1.36-1.65-1.95-1.85a1.13 1.13 0 0 0-.71 2.15z"/>
      <path fill="#FFF" fill-rule="nonzero" d="M83.2 49.8c.19.6-.32 2.68-.32 2.68s-1.63-1.37-1.83-1.97c-.19-.6.13-1.23.73-1.42.59-.2 1.22.13 1.42.72zM86.04 52.52c-.16.6-1.71 2.07-1.71 2.07s-.63-2.04-.47-2.65a1.13 1.13 0 1 1 2.18.58zM87.8 58.18c-.45.44-2.52.91-2.52.91s.48-2.08.92-2.52a1.12 1.12 0 0 1 1.89.51c.1.4 0 .81-.3 1.1zM88.16 62.76c-.36.5-2.33 1.33-2.33 1.33s.13-2.14.5-2.65a1.13 1.13 0 0 1 1.94.19c.16.36.12.8-.11 1.12zM82.12 55.44c.56.28 2.67.06 2.67.06s-1.12-1.82-1.68-2.1a1.12 1.12 0 0 0-1.51.53c-.27.56-.04 1.24.52 1.51zM82.62 60.8c.61.09 2.57-.76 2.57-.76s-1.62-1.39-2.23-1.48a1.13 1.13 0 1 0-.34 2.24zM83.81 65.93c.6.2 2.66-.3 2.66-.3s-1.36-1.65-1.95-1.85a1.13 1.13 0 0 0-.71 2.15z"/>
      <path fill="#474059" fill-rule="nonzero" d="M82.16 79.86h8.54l2.13-13.08h-12.8z"/>
      <path fill="#000" fill-rule="nonzero" d="M81.66 66.78l2 12.23h7.18l-.14.85h-8.54l-2.13-13.08z" opacity=".1"/>
    </g>
    <path fill="url(#a)" fill-rule="nonzero" d="M20.81 3.29h64.62v77.76H20.81z"/>
    <path fill="#FFF" fill-rule="nonzero" d="M20.81 5.48h63.52v76.67H20.81z"/>
    <path fill="#C0BCCF" fill-rule="nonzero" d="M46 13.14h25.19v1.1H46zM46 17.52h25.19v1.1H46z"/>
    <path fill="#00C4B1" fill-rule="nonzero" d="M51.48 20.81h13.14v1.1H51.48z"/>
    <path fill="#C0BCCF" fill-rule="nonzero" d="M46 38.33h25.19v1.1H46zM46 41.62h25.19v1.1H46z" opacity=".5"/>
    <path fill="#00C4B1" fill-rule="nonzero" d="M51.48 47.1h13.14v1.1H51.48z" opacity=".5"/>
    <path fill="#C0BCCF" fill-rule="nonzero" d="M46 64.62h25.19v1.1H46zM46 67.9h25.19V69H46z" opacity=".5"/>
    <path fill="#00C4B1" fill-rule="nonzero" d="M51.48 71.19h13.14v1.1H51.48z" opacity=".5"/>
    <g fill-rule="nonzero" opacity=".5" transform="translate(25.19 36.14)">
      <path fill="#C0BCCF" d="M13.07 6.61a6.5 6.5 0 0 1-2.5 5.14l-.02.01a6.38 6.38 0 0 1-1.93 1.04l-.08.03-.17.05h-.02a6.56 6.56 0 0 1-3.6 0h-.01l-.28-.08-.08-.03c-.32-.11-.62-.25-.9-.4l-.02-.01a6.55 6.55 0 0 1-1.28-.9l-.03-.04a6.1 6.1 0 0 1-.63-.65l-.12-.15a6.52 6.52 0 1 1 11.67-4z"/>
      <path fill="url(#b)" d="M11.29 8.81l-.5-.22.01-.22v-.2c-.05-.5-.37-.94-.6-1.4a4 4 0 0 1-.39-1.34c-.06-.58 0-1.18-.2-1.72a3.1 3.1 0 0 0-.88-1.12c-.4-.38-.89-.69-1.4-.9a2.49 2.49 0 0 0-1.68-.04c-.48.18-.85.53-1.2.87-.27.23-.5.5-.69.78-.22.36-.3.77-.38 1.17-.12.65-.2 1.3-.24 1.96-.03.55-.1 1.17-.56 1.5-.23.17-.55.26-.66.5a.52.52 0 0 0-.03.24l.01.2.03.12c-.14.33-.25.67-.34 1.02l-.2.76h.25l.9.02.96.02.9.03h.02l.26.01h.09l3.57.09h.34l.72.02 1.05.02h.01l.8.02h.24l-.04-.83c.17-1.28-.17-1.36-.17-1.36zm-4.02-.1c0 .7-.75 1.57-.75 1.57l-.76-1.03.02-.04.74 1s.75-.87.75-1.58a.83.83 0 0 1 .06-.1l.02.05-.08.13zm1.16 2.77v-.1l-.01-.1-.02-.1-.01-.11-.03-.1v-.04a3.5 3.5 0 0 0-.04-.13l-.03-.11-.01-.05-.03-.08-.02-.05-.02-.06-.05-.12-.04-.12-.1-.24-.45-.92a4.9 4.9 0 0 1-.2-.5l-.02.03-.08.13c0 .7-.75 1.57-.75 1.57l-.76-1.03-.67.96c-.1.04-.2.2-.27.44a3.28 3.28 0 0 0-.11.43l-.02.08v.02l-.03.17-.04.19a2.93 2.93 0 0 0-.05.36l-.02.14-.03.18.16.44c.04.07.06.16.07.24a7 7 0 0 0 3.6 0 1 1 0 0 1-.02-.25c.01-.23.05-.46.1-.69v-.38-.1zm0 0v-.1l-.01-.1-.02-.1-.01-.11-.03-.1v-.04a3.5 3.5 0 0 0-.04-.13l-.03-.11-.01-.05-.03-.08-.02-.05-.02-.06-.05-.12-.04-.12-.1-.24-.45-.92a4.9 4.9 0 0 1-.2-.5l-.02.03-.08.13c0 .7-.75 1.57-.75 1.57l-.76-1.03-.67.96c-.1.04-.2.2-.27.44a3.28 3.28 0 0 0-.11.43l-.02.08v.02l-.03.17-.04.19a2.93 2.93 0 0 0-.05.36l-.02.14-.03.18.16.44c.04.07.06.16.07.24a7 7 0 0 0 3.6 0 1 1 0 0 1-.02-.25c.01-.23.05-.46.1-.69v-.38-.1zm0 0v-.1l-.01-.1-.02-.1-.01-.11-.03-.1v-.04a3.5 3.5 0 0 0-.04-.13l-.03-.11-.01-.05-.03-.08-.02-.05-.02-.06-.05-.12-.04-.12-.1-.24-.45-.92a4.9 4.9 0 0 1-.2-.5l-.02.03-.08.13c0 .7-.75 1.57-.75 1.57l-.76-1.03-.67.96c-.1.04-.2.2-.27.44a3.28 3.28 0 0 0-.11.43l-.02.08v.02l-.03.17-.04.19a2.93 2.93 0 0 0-.05.36l-.02.14-.03.18.16.44c.04.07.06.16.07.24a7 7 0 0 0 3.6 0 1 1 0 0 1-.02-.25c.01-.23.05-.46.1-.69v-.38-.1zm0 0v-.1l-.01-.1-.02-.1-.01-.11-.03-.1v-.04a3.5 3.5 0 0 0-.04-.13l-.03-.11-.01-.05-.03-.08-.02-.05-.02-.06-.05-.12-.04-.12-.1-.24-.45-.92a4.9 4.9 0 0 1-.2-.5l-.02.03-.08.13c0 .7-.75 1.57-.75 1.57l-.76-1.03-.67.96c-.1.04-.2.2-.27.44a3.28 3.28 0 0 0-.11.43l-.02.08v.02l-.03.17-.04.19a2.93 2.93 0 0 0-.05.36l-.02.14-.03.18.16.44c.04.07.06.16.07.24a7 7 0 0 0 3.6 0 1 1 0 0 1-.02-.25c.01-.23.05-.46.1-.69v-.38-.1z"/>
      <path fill="#493545" d="M4.06 4.79h4.41v2.97H4.06z"/>
      <path fill="#C77485" d="M9.2 8.07l-1.84 2.6-1.93-.16s-2.52.16-.84-1.77c.8-.92 1.07-1.7 1.12-2.25.06-.6-.12-.94-.12-.94l2.1-.25c-.1.29-.1.59-.03.88.26 1.09 1.54 1.9 1.54 1.9z"/>
      <path fill="#000" d="M7.66 6.18a2.1 2.1 0 0 1-1.95.3c.06-.59-.12-.93-.12-.93l2.1-.25c-.1.28-.1.59-.03.88z" opacity=".1"/>
      <circle cx="6.39" cy="4.42" r="2.1" fill="#C77485"/>
      <path fill="#000" d="M9.13 8.18l-.05-.2-.05-.16-.06-.25-.01-.05v-.04s.04-.15-.29-.1l-.06.01-.18.05-.06.02-.09.02a1.8 1.8 0 0 0-.93.7l-.01.03a.9.9 0 0 0-.06.11c0 .76-.76 1.68-.76 1.68l-.74-1.06-.01-.03-.18-.25-.06-.08-.02-.03-.38-.52-.1-.13L5 7.86l-.05-.06-.1-.15-.44.25-.58.34-.33 2.18v.24l.08 1.19v.02l-.12.49h.01c.3.16.6.3.9.4l.09.03.28.1V12.87c1.18.34 2.43.34 3.6 0h.03l.16-.05.1-.03c.23-.08.46-.17.69-.28l.08-1.72.05-1.23v-.08l-.32-1.31z" opacity=".1"/>
      <path fill="#FFF" d="M8.43 11.37v-.12l-.01-.1-.02-.11-.01-.11-.03-.11v-.04a4.5 4.5 0 0 0-.07-.26l-.01-.05-.03-.08-.02-.06-.02-.07-.05-.13-.04-.13-.1-.25-.45-.99a5.44 5.44 0 0 1-.2-.52l-.02.03a1.1 1.1 0 0 0-.08.14c0 .75-.75 1.68-.75 1.68l-.76-1.11L5.09 10c-.1.05-.2.23-.27.47a3.64 3.64 0 0 0-.11.47l-.02.09a7.9 7.9 0 0 0-.03.2l-.04.2-.02.13-.03.25-.02.15-.03.2.16.46c.04.08.06.17.07.26a6.56 6.56 0 0 0 3.6 0 1.14 1.14 0 0 1-.02-.27c.01-.24.05-.49.1-.73v-.41-.1zm0 0v-.12l-.01-.1-.02-.11-.01-.11-.03-.11v-.04a4.5 4.5 0 0 0-.07-.26l-.01-.05-.03-.08-.02-.06-.02-.07-.05-.13-.04-.13-.1-.25-.45-.99a5.44 5.44 0 0 1-.2-.52l-.02.03a1.1 1.1 0 0 0-.08.14c0 .75-.75 1.68-.75 1.68l-.76-1.11L5.09 10c-.1.05-.2.23-.27.47a3.64 3.64 0 0 0-.11.47l-.02.09a7.9 7.9 0 0 0-.03.2l-.04.2-.02.13-.03.25-.02.15-.03.2.16.46c.04.08.06.17.07.26a6.56 6.56 0 0 0 3.6 0 1.14 1.14 0 0 1-.02-.27c.01-.24.05-.49.1-.73v-.41-.1zm0 0v-.12l-.01-.1-.02-.11-.01-.11-.03-.11v-.04a4.5 4.5 0 0 0-.07-.26l-.01-.05-.03-.08-.02-.06-.02-.07-.05-.13-.04-.13-.1-.25-.45-.99a5.44 5.44 0 0 1-.2-.52l-.02.03a1.1 1.1 0 0 0-.08.14c0 .75-.75 1.68-.75 1.68l-.76-1.11L5.09 10c-.1.05-.2.23-.27.47a3.64 3.64 0 0 0-.11.47l-.02.09a7.9 7.9 0 0 0-.03.2l-.04.2-.02.13-.03.25-.02.15-.03.2.16.46c.04.08.06.17.07.26a6.56 6.56 0 0 0 3.6 0 1.14 1.14 0 0 1-.02-.27c.01-.24.05-.49.1-.73v-.41-.1zm1.02-1.8L9.11 8.2l-.06-.23-.02-.07-.08-.33v-.05c-.02-.03-.05-.05-.12-.06a1.46 1.46 0 0 0-.46.08l-.08.03h-.01a1.83 1.83 0 0 0-.91.67l-.02.03a1.1 1.1 0 0 0-.08.14c0 .75-.76 1.68-.76 1.68l-.76-1.11-.04-.06V8.9l-.12-.17-.08-.1-.02-.04-.4-.52-.12-.17-.04-.07-.09-.1-.28.16-.72.42-.34 2.16v.02l.01.16.08 1.2v.07l-.11.43c.29.16.59.3.9.4l.08.03.28.1V12.87c1.18.34 2.43.34 3.61 0h.02l.17-.05.08-.03c.24-.08.47-.17.7-.28l.08-1.72.06-1.22v-.01zm-4.72 3.31l.01.06v-.06zm3.7-1.51v-.12l-.01-.1-.02-.11-.01-.11-.03-.11v-.04a4.5 4.5 0 0 0-.07-.26l-.01-.05-.03-.08-.02-.06-.02-.07-.05-.13-.04-.13-.1-.25-.45-.99a5.44 5.44 0 0 1-.2-.52l-.02.03a1.1 1.1 0 0 0-.08.14c0 .75-.75 1.68-.75 1.68l-.76-1.11L5.09 10c-.1.05-.2.23-.27.47a3.64 3.64 0 0 0-.11.47l-.02.09a7.9 7.9 0 0 0-.03.2l-.04.2-.02.13-.03.25-.02.15-.03.2.16.46c.04.08.06.17.07.26a6.56 6.56 0 0 0 3.6 0 1.14 1.14 0 0 1-.02-.27c.01-.24.05-.49.1-.73v-.41-.1zm0 0v-.12l-.01-.1-.02-.11-.01-.11-.03-.11v-.04a4.5 4.5 0 0 0-.07-.26l-.01-.05-.03-.08-.02-.06-.02-.07-.05-.13-.04-.13-.1-.25-.45-.99a5.44 5.44 0 0 1-.2-.52l-.02.03a1.1 1.1 0 0 0-.08.14c0 .75-.75 1.68-.75 1.68l-.76-1.11L5.09 10c-.1.05-.2.23-.27.47a3.64 3.64 0 0 0-.11.47l-.02.09a7.9 7.9 0 0 0-.03.2l-.04.2-.02.13-.03.25-.02.15-.03.2.16.46c.04.08.06.17.07.26a6.56 6.56 0 0 0 3.6 0 1.14 1.14 0 0 1-.02-.27c.01-.24.05-.49.1-.73v-.41-.1zm0 0v-.12l-.01-.1-.02-.11-.01-.11-.03-.11v-.04a4.5 4.5 0 0 0-.07-.26l-.01-.05-.03-.08-.02-.06-.02-.07-.05-.13-.04-.13-.1-.25-.45-.99a5.44 5.44 0 0 1-.2-.52l-.02.03a1.1 1.1 0 0 0-.08.14c0 .75-.75 1.68-.75 1.68l-.76-1.11L5.09 10c-.1.05-.2.23-.27.47a3.64 3.64 0 0 0-.11.47l-.02.09a7.9 7.9 0 0 0-.03.2l-.04.2-.02.13-.03.25-.02.15-.03.2.16.46c.04.08.06.17.07.26a6.56 6.56 0 0 0 3.6 0 1.14 1.14 0 0 1-.02-.27c.01-.24.05-.49.1-.73v-.41-.1zm0 0v-.12l-.01-.1-.02-.11-.01-.11-.03-.11v-.04a4.5 4.5 0 0 0-.07-.26l-.01-.05-.03-.08-.02-.06-.02-.07-.05-.13-.04-.13-.1-.25-.45-.99a5.44 5.44 0 0 1-.2-.52l-.02.03a1.1 1.1 0 0 0-.08.14c0 .75-.75 1.68-.75 1.68l-.76-1.11L5.09 10c-.1.05-.2.23-.27.47a3.64 3.64 0 0 0-.11.47l-.02.09a7.9 7.9 0 0 0-.03.2l-.04.2-.02.13-.03.25-.02.15-.03.2.16.46c.04.08.06.17.07.26a6.56 6.56 0 0 0 3.6 0 1.14 1.14 0 0 1-.02-.27c.01-.24.05-.49.1-.73v-.41-.1zm0 0v-.12l-.01-.1-.02-.11-.01-.11-.03-.11v-.04a4.5 4.5 0 0 0-.07-.26l-.01-.05-.03-.08-.02-.06-.02-.07-.05-.13-.04-.13-.1-.25-.45-.99a5.44 5.44 0 0 1-.2-.52l-.02.03a1.1 1.1 0 0 0-.08.14c0 .75-.75 1.68-.75 1.68l-.76-1.11L5.09 10c-.1.05-.2.23-.27.47a3.64 3.64 0 0 0-.11.47l-.02.09a7.9 7.9 0 0 0-.03.2l-.04.2-.02.13-.03.25-.02.15-.03.2.16.46c.04.08.06.17.07.26a6.56 6.56 0 0 0 3.6 0 1.14 1.14 0 0 1-.02-.27c.01-.24.05-.49.1-.73v-.41-.1zm0 0v-.12l-.01-.1-.02-.11-.01-.11-.03-.11v-.04a4.5 4.5 0 0 0-.07-.26l-.01-.05-.03-.08-.02-.06-.02-.07-.05-.13-.04-.13-.1-.25-.45-.99a5.44 5.44 0 0 1-.2-.52l-.02.03a1.1 1.1 0 0 0-.08.14c0 .75-.75 1.68-.75 1.68l-.76-1.11L5.09 10c-.1.05-.2.23-.27.47a3.64 3.64 0 0 0-.11.47l-.02.09a7.9 7.9 0 0 0-.03.2l-.04.2-.02.13-.03.25-.02.15-.03.2.16.46c.04.08.06.17.07.26a6.56 6.56 0 0 0 3.6 0 1.14 1.14 0 0 1-.02-.27c.01-.24.05-.49.1-.73v-.41-.1zm0 0v-.12l-.01-.1-.02-.11-.01-.11-.03-.11v-.04a4.5 4.5 0 0 0-.07-.26l-.01-.05-.03-.08-.02-.06-.02-.07-.05-.13-.04-.13-.1-.25-.45-.99a5.44 5.44 0 0 1-.2-.52l-.02.03a1.1 1.1 0 0 0-.08.14c0 .75-.75 1.68-.75 1.68l-.76-1.11L5.09 10c-.1.05-.2.23-.27.47a3.64 3.64 0 0 0-.11.47l-.02.09a7.9 7.9 0 0 0-.03.2l-.04.2-.02.13-.03.25-.02.15-.03.2.16.46c.04.08.06.17.07.26a6.56 6.56 0 0 0 3.6 0 1.14 1.14 0 0 1-.02-.27c.01-.24.05-.49.1-.73v-.41-.1zm0 0v-.12l-.01-.1-.02-.11-.01-.11-.03-.11v-.04a4.5 4.5 0 0 0-.07-.26l-.01-.05-.03-.08-.02-.06-.02-.07-.05-.13-.04-.13-.1-.25-.45-.99a5.44 5.44 0 0 1-.2-.52l-.02.03a1.1 1.1 0 0 0-.08.14c0 .75-.75 1.68-.75 1.68l-.76-1.11L5.09 10c-.1.05-.2.23-.27.47a3.64 3.64 0 0 0-.11.47l-.02.09a7.9 7.9 0 0 0-.03.2l-.04.2-.02.13-.03.25-.02.15-.03.2.16.46c.04.08.06.17.07.26a6.56 6.56 0 0 0 3.6 0 1.14 1.14 0 0 1-.02-.27c.01-.24.05-.49.1-.73v-.41-.1z"/>
      <path fill="#000" d="M5.77 8.91H5.7l-.28-.06-.04-.01c-.23-.07-.49-.19-.55-.4a.37.37 0 0 1 0-.2c.04-.12.08-.23.14-.33l.02-.05c.08-.15.2-.29.35-.38l-.12.02-.97.16-1.51.24s-.27-.05-.64.96v.03c-.1.25-.19.56-.28.94l-.19.79-.05.22c.18.2.36.4.56.58l.03.03c.4.35.82.65 1.28.9l.02.01c.29.16.6.3.9.4l.08.03.06-.57.01-.07.02-.19.02-.15.04-.25a3.15 3.15 0 0 1 .05-.34l.04-.18v-.01l.01-.1a2.18 2.18 0 0 1 .06-.24l.06-.22c.08-.24.17-.42.27-.47l.66-1.02.03-.05.01-.01h-.02z" opacity=".1"/>
      <path fill="#444176" d="M5.71 8.92L5.01 10c-.1.05-.2.22-.27.46l-.06.23c-.1.42-.17.83-.22 1.26V12a29 29 0 0 0-.09.76c-.3-.1-.61-.24-.9-.4h-.02a6.55 6.55 0 0 1-1.28-.9l-.03-.04a6.1 6.1 0 0 1-.62-.65l.03-.15.18-.78a9.45 9.45 0 0 1 .34-1.11c.34-.87.58-.83.58-.83l1.6-.25 1-.17-.02.02c-.12.08-.21.18-.28.3l-.03.05-.03.05c-.06.11-.1.22-.14.34-.03.1-.02.19.03.27.1.19.37.3.59.35h.04l.3.06z"/>
      <path fill="#000" d="M11.26 10.85l-.04-.85c.16-1.34-.17-1.42-.17-1.42l-.4-.2h-.01l-1.6-.77-.07-.04h-.02l-.2-.1-.14-.07-.25-.12-.08-.04v.33a23.15 23.15 0 0 0 .24 2.6l.07.63c.04.68.02 1.36-.07 2.04l.1-.03a6.43 6.43 0 0 0 1.92-1.04l.02-.01c.25-.2.48-.4.7-.63v-.28z" opacity=".1"/>
      <path fill="#444176" d="M11.34 10.85L11.3 10c.17-1.34-.17-1.43-.17-1.43l-.48-.23-1.62-.78-.07-.03-.01-.01-.12-.06-.16-.08-.3-.14V7.54l.01.36a22.52 22.52 0 0 0 .23 2.27l.06.62c.05.67.03 1.35-.06 2.02a6.43 6.43 0 0 0 1.94-1.04l.01-.01a6.4 6.4 0 0 0 .78-.72v-.19z"/>
      <path fill="#000" d="M4.56 2.12c-.1.13-.1.31-.13.48-.1.37-.51.6-.6.99-.06.22 0 .45-.04.68-.06.4-.44.69-.65 1.05-.22.38-.25.83-.09 1.24.05.1.09.2.12.31.03.16.02.32-.03.48-.07.34-.14.72.02 1.03.14.26.43.4.72.46.3.03.59.02.88-.04.32-.05.64-.1.92-.27L4.64 6.02a2.1 2.1 0 0 1-.21-.79c0-.2.05-.4.13-.59.2-.54.5-1.05.86-1.5.15.18.14.45.27.64a1 1 0 0 0 .42.32c.5.24 1 .45 1.52.64a.2.2 0 0 1 .15.3l-.4 1.6c-.08.36-.16.77.06 1.06.23.29.73.43.73.8v.17c.02.18.23.26.4.27.6.01 1.12-.4 1.23-1 .1-.63-.33-1.22-.5-1.83-.3-1.04.1-2.27-.49-3.18-.47-.74-1.33-.94-2.14-1.04-.57-.06-1.71-.3-2.11.23z" opacity=".1"/>
      <path fill="#493545" d="M4.56 2.02c-.1.13-.1.32-.13.48-.1.38-.51.61-.6.99-.06.22 0 .45-.04.68-.06.41-.44.7-.65 1.05-.22.38-.25.84-.09 1.24.05.1.09.2.12.31.03.16.02.33-.03.48-.07.35-.14.72.02 1.03.14.26.43.41.72.46.3.03.59.02.88-.04.32-.05.64-.1.92-.27l-1.04-2.5a2.1 2.1 0 0 1-.21-.8c0-.2.05-.4.13-.58.2-.55.5-1.05.86-1.5.15.18.14.44.27.64A1 1 0 0 0 6.1 4c.5.24 1 .45 1.52.63a.2.2 0 0 1 .15.3l-.4 1.61c-.08.36-.16.77.06 1.06.23.28.73.42.73.8v.17c.02.17.23.26.4.26.6.02 1.12-.4 1.23-1 .1-.63-.33-1.21-.5-1.83-.3-1.04.1-2.26-.49-3.18-.47-.74-1.33-.94-2.14-1.03-.57-.07-1.71-.3-2.11.22z"/>
    </g>
    <g fill-rule="nonzero" opacity=".5" transform="translate(25.19 60.24)">
      <path fill="#C0BCCF" d="M13.07 6.61a6.5 6.5 0 0 1-2.5 5.14l-.02.01a6.38 6.38 0 0 1-1.93 1.04l-.08.03-.17.05h-.02a6.56 6.56 0 0 1-3.6 0h-.01l-.28-.08-.08-.03c-.32-.11-.62-.25-.9-.4l-.02-.01a6.55 6.55 0 0 1-1.28-.9l-.03-.04a6.1 6.1 0 0 1-.63-.65l-.12-.15a6.52 6.52 0 1 1 11.67-4z"/>
      <path fill="url(#c)" d="M11.34 10.82l-.04-.87c.17-1.36-.17-1.45-.17-1.45l-.48-.23-1.62-.8-.07-.04V7.4s.02-.1-.14-.1a.58.58 0 0 1-.04-.25c.02-.19.16-.33.27-.48.27-.41.39-.91.31-1.4a3.29 3.29 0 0 0-.53-1.35l-.03-.05c.03-.13.05-.28.05-.42 0-1.1-1.11-2-2.5-2-1.24 0-2.28.74-2.46 1.7a.87.87 0 0 0-.07.12c-.26.47.13.83.15 1.3 0 .33-.21.6-.39.88-.17.28-.3.65-.12.92.06.09.15.16.2.25.18.33-.12.7-.24 1.06l-.03.13-.74.12s-.24-.05-.58.84a26.14 26.14 0 0 0-.52 1.92l-.03.15.06.08c.18.2.36.4.56.59l.03.03c.39.35.82.66 1.28.92h.02c.29.16.59.3.9.41l.08.03.28.1V12.87c1.19.34 2.43.34 3.61 0h.02l.17-.05.08-.03a6.37 6.37 0 0 0 1.94-1.06l.01-.01a6.44 6.44 0 0 0 .78-.73v-.18z"/>
      <path fill="#444176" d="M3.97 4.6c0 .32-.21.6-.39.86-.17.27-.3.63-.12.9.06.1.15.16.2.25.18.32-.12.7-.24 1.04-.13.41.02.87.3 1.2.27.33.65.55 1.03.75.8.43 1.65.73 2.54.9.46.1.96.13 1.4-.06.62-.28.96-.96.83-1.63-.1-.5-.48-.9-.67-1.38a.65.65 0 0 1-.06-.3c.01-.19.15-.33.26-.48.27-.4.38-.88.31-1.36a3.2 3.2 0 0 0-.53-1.33c-.1-.16-.23-.3-.39-.42-.2-.14-.47-.18-.71-.22-1.05-.14-2.13-.3-3.18-.36-.33-.01-.57.05-.74.36-.25.46.14.81.16 1.28z"/>
      <path fill="#C77485" d="M9.33 7.86l-1.97 2.81-1.93-.17s-.07.68-.84-1.76c-.44-1.36.44-.89.62-1.26.17-.38.48-.71.5-1 .06-.59-.12-.93-.12-.93l2.1-.25c-.1.28-.1.59-.03.88.26 1.09 1.67 1.68 1.67 1.68z"/>
      <ellipse cx="6.36" cy="3.5" fill="#444176" rx="2.49" ry="1.97"/>
      <path fill="#000" d="M7.66 6.18a2.1 2.1 0 0 1-1.95.3c.06-.59-.12-.93-.12-.93l2.1-.25c-.1.28-.1.59-.03.88z" opacity=".1"/>
      <circle cx="6.39" cy="4.42" r="2.1" fill="#C77485"/>
      <path fill="#000" d="M9.13 8.18l-.05-.2-.05-.16-.06-.25-.01-.05v-.04s.04-.15-.29-.1l-.06.01-.18.05-.06.02-.09.02a1.8 1.8 0 0 0-.93.7l-.01.03a.9.9 0 0 0-.06.11c0 .76-.76 1.68-.76 1.68l-.74-1.06-.01-.03-.18-.25-.06-.08-.02-.03-.38-.52-.1-.13L5 7.86l-.05-.06-.1-.15-.44.25-.58.34-.33 2.18v.24l.08 1.19v.02l-.12.49h.01c.3.16.6.3.9.4l.09.03.28.1V12.87c1.18.34 2.43.34 3.6 0h.03l.16-.05.1-.03c.23-.08.46-.17.69-.28l.08-1.72.05-1.23v-.08l-.32-1.31z" opacity=".1"/>
      <path fill="#444176" d="M8.43 11.37v-.12l-.01-.1-.02-.11-.01-.11-.03-.11v-.04a4.5 4.5 0 0 0-.07-.26l-.01-.05-.03-.08-.02-.06-.02-.07-.05-.13-.04-.13-.1-.25-.45-.99a5.44 5.44 0 0 1-.2-.52l-.02.03a1.1 1.1 0 0 0-.08.14c0 .75-.75 1.68-.75 1.68l-.76-1.11L5.09 10c-.1.05-.2.23-.27.47a3.64 3.64 0 0 0-.11.47l-.02.09a7.9 7.9 0 0 0-.03.2l-.04.2-.02.13-.03.25-.02.15-.03.2.16.46c.04.08.06.17.07.26a6.56 6.56 0 0 0 3.6 0 1.14 1.14 0 0 1-.02-.27c.01-.24.05-.49.1-.73v-.41-.1zm0 0v-.12l-.01-.1-.02-.11-.01-.11-.03-.11v-.04a4.5 4.5 0 0 0-.07-.26l-.01-.05-.03-.08-.02-.06-.02-.07-.05-.13-.04-.13-.1-.25-.45-.99a5.44 5.44 0 0 1-.2-.52l-.02.03a1.1 1.1 0 0 0-.08.14c0 .75-.75 1.68-.75 1.68l-.76-1.11L5.09 10c-.1.05-.2.23-.27.47a3.64 3.64 0 0 0-.11.47l-.02.09a7.9 7.9 0 0 0-.03.2l-.04.2-.02.13-.03.25-.02.15-.03.2.16.46c.04.08.06.17.07.26a6.56 6.56 0 0 0 3.6 0 1.14 1.14 0 0 1-.02-.27c.01-.24.05-.49.1-.73v-.41-.1zm0 0v-.12l-.01-.1-.02-.11-.01-.11-.03-.11v-.04a4.5 4.5 0 0 0-.07-.26l-.01-.05-.03-.08-.02-.06-.02-.07-.05-.13-.04-.13-.1-.25-.45-.99a5.44 5.44 0 0 1-.2-.52l-.02.03a1.1 1.1 0 0 0-.08.14c0 .75-.75 1.68-.75 1.68l-.76-1.11L5.09 10c-.1.05-.2.23-.27.47a3.64 3.64 0 0 0-.11.47l-.02.09a7.9 7.9 0 0 0-.03.2l-.04.2-.02.13-.03.25-.02.15-.03.2.16.46c.04.08.06.17.07.26a6.56 6.56 0 0 0 3.6 0 1.14 1.14 0 0 1-.02-.27c.01-.24.05-.49.1-.73v-.41-.1zm1.02-1.8L9.11 8.2l-.06-.23-.02-.07-.08-.33v-.05c-.02-.03-.05-.05-.12-.06a1.46 1.46 0 0 0-.46.08l-.08.03h-.01a1.83 1.83 0 0 0-.91.67l-.02.03a1.1 1.1 0 0 0-.08.14c0 .75-.76 1.68-.76 1.68l-.76-1.11-.04-.06V8.9l-.12-.17-.08-.1-.02-.04-.4-.52-.12-.17-.04-.07-.09-.1-.28.16-.72.42-.34 2.16v.02l.01.16.08 1.2v.07l-.11.43c.29.16.59.3.9.4l.08.03.28.1V12.87c1.18.34 2.43.34 3.61 0h.02l.17-.05.08-.03c.24-.08.47-.17.7-.28l.08-1.72.06-1.22v-.01zm-4.72 3.31l.01.06v-.06zm3.7-1.51v-.12l-.01-.1-.02-.11-.01-.11-.03-.11v-.04a4.5 4.5 0 0 0-.07-.26l-.01-.05-.03-.08-.02-.06-.02-.07-.05-.13-.04-.13-.1-.25-.45-.99a5.44 5.44 0 0 1-.2-.52l-.02.03a1.1 1.1 0 0 0-.08.14c0 .75-.75 1.68-.75 1.68l-.76-1.11L5.09 10c-.1.05-.2.23-.27.47a3.64 3.64 0 0 0-.11.47l-.02.09a7.9 7.9 0 0 0-.03.2l-.04.2-.02.13-.03.25-.02.15-.03.2.16.46c.04.08.06.17.07.26a6.56 6.56 0 0 0 3.6 0 1.14 1.14 0 0 1-.02-.27c.01-.24.05-.49.1-.73v-.41-.1zm0 0v-.12l-.01-.1-.02-.11-.01-.11-.03-.11v-.04a4.5 4.5 0 0 0-.07-.26l-.01-.05-.03-.08-.02-.06-.02-.07-.05-.13-.04-.13-.1-.25-.45-.99a5.44 5.44 0 0 1-.2-.52l-.02.03a1.1 1.1 0 0 0-.08.14c0 .75-.75 1.68-.75 1.68l-.76-1.11L5.09 10c-.1.05-.2.23-.27.47a3.64 3.64 0 0 0-.11.47l-.02.09a7.9 7.9 0 0 0-.03.2l-.04.2-.02.13-.03.25-.02.15-.03.2.16.46c.04.08.06.17.07.26a6.56 6.56 0 0 0 3.6 0 1.14 1.14 0 0 1-.02-.27c.01-.24.05-.49.1-.73v-.41-.1zm0 0v-.12l-.01-.1-.02-.11-.01-.11-.03-.11v-.04a4.5 4.5 0 0 0-.07-.26l-.01-.05-.03-.08-.02-.06-.02-.07-.05-.13-.04-.13-.1-.25-.45-.99a5.44 5.44 0 0 1-.2-.52l-.02.03a1.1 1.1 0 0 0-.08.14c0 .75-.75 1.68-.75 1.68l-.76-1.11L5.09 10c-.1.05-.2.23-.27.47a3.64 3.64 0 0 0-.11.47l-.02.09a7.9 7.9 0 0 0-.03.2l-.04.2-.02.13-.03.25-.02.15-.03.2.16.46c.04.08.06.17.07.26a6.56 6.56 0 0 0 3.6 0 1.14 1.14 0 0 1-.02-.27c.01-.24.05-.49.1-.73v-.41-.1zm0 0v-.12l-.01-.1-.02-.11-.01-.11-.03-.11v-.04a4.5 4.5 0 0 0-.07-.26l-.01-.05-.03-.08-.02-.06-.02-.07-.05-.13-.04-.13-.1-.25-.45-.99a5.44 5.44 0 0 1-.2-.52l-.02.03a1.1 1.1 0 0 0-.08.14c0 .75-.75 1.68-.75 1.68l-.76-1.11L5.09 10c-.1.05-.2.23-.27.47a3.64 3.64 0 0 0-.11.47l-.02.09a7.9 7.9 0 0 0-.03.2l-.04.2-.02.13-.03.25-.02.15-.03.2.16.46c.04.08.06.17.07.26a6.56 6.56 0 0 0 3.6 0 1.14 1.14 0 0 1-.02-.27c.01-.24.05-.49.1-.73v-.41-.1zm0 0v-.12l-.01-.1-.02-.11-.01-.11-.03-.11v-.04a4.5 4.5 0 0 0-.07-.26l-.01-.05-.03-.08-.02-.06-.02-.07-.05-.13-.04-.13-.1-.25-.45-.99a5.44 5.44 0 0 1-.2-.52l-.02.03a1.1 1.1 0 0 0-.08.14c0 .75-.75 1.68-.75 1.68l-.76-1.11L5.09 10c-.1.05-.2.23-.27.47a3.64 3.64 0 0 0-.11.47l-.02.09a7.9 7.9 0 0 0-.03.2l-.04.2-.02.13-.03.25-.02.15-.03.2.16.46c.04.08.06.17.07.26a6.56 6.56 0 0 0 3.6 0 1.14 1.14 0 0 1-.02-.27c.01-.24.05-.49.1-.73v-.41-.1zm0 0v-.12l-.01-.1-.02-.11-.01-.11-.03-.11v-.04a4.5 4.5 0 0 0-.07-.26l-.01-.05-.03-.08-.02-.06-.02-.07-.05-.13-.04-.13-.1-.25-.45-.99a5.44 5.44 0 0 1-.2-.52l-.02.03a1.1 1.1 0 0 0-.08.14c0 .75-.75 1.68-.75 1.68l-.76-1.11L5.09 10c-.1.05-.2.23-.27.47a3.64 3.64 0 0 0-.11.47l-.02.09a7.9 7.9 0 0 0-.03.2l-.04.2-.02.13-.03.25-.02.15-.03.2.16.46c.04.08.06.17.07.26a6.56 6.56 0 0 0 3.6 0 1.14 1.14 0 0 1-.02-.27c.01-.24.05-.49.1-.73v-.41-.1zm0 0v-.12l-.01-.1-.02-.11-.01-.11-.03-.11v-.04a4.5 4.5 0 0 0-.07-.26l-.01-.05-.03-.08-.02-.06-.02-.07-.05-.13-.04-.13-.1-.25-.45-.99a5.44 5.44 0 0 1-.2-.52l-.02.03a1.1 1.1 0 0 0-.08.14c0 .75-.75 1.68-.75 1.68l-.76-1.11L5.09 10c-.1.05-.2.23-.27.47a3.64 3.64 0 0 0-.11.47l-.02.09a7.9 7.9 0 0 0-.03.2l-.04.2-.02.13-.03.25-.02.15-.03.2.16.46c.04.08.06.17.07.26a6.56 6.56 0 0 0 3.6 0 1.14 1.14 0 0 1-.02-.27c.01-.24.05-.49.1-.73v-.41-.1zm0 0v-.12l-.01-.1-.02-.11-.01-.11-.03-.11v-.04a4.5 4.5 0 0 0-.07-.26l-.01-.05-.03-.08-.02-.06-.02-.07-.05-.13-.04-.13-.1-.25-.45-.99a5.44 5.44 0 0 1-.2-.52l-.02.03a1.1 1.1 0 0 0-.08.14c0 .75-.75 1.68-.75 1.68l-.76-1.11L5.09 10c-.1.05-.2.23-.27.47a3.64 3.64 0 0 0-.11.47l-.02.09a7.9 7.9 0 0 0-.03.2l-.04.2-.02.13-.03.25-.02.15-.03.2.16.46c.04.08.06.17.07.26a6.56 6.56 0 0 0 3.6 0 1.14 1.14 0 0 1-.02-.27c.01-.24.05-.49.1-.73v-.41-.1z"/>
      <path fill="#000" d="M5.77 8.91H5.7l-.28-.06-.04-.01c-.23-.07-.49-.19-.55-.4a.37.37 0 0 1 0-.2c.04-.12.08-.23.14-.33l.02-.05c.08-.15.2-.29.35-.38l-.12.02-.97.16-1.51.24s-.27-.05-.64.96v.03c-.1.25-.19.56-.28.94l-.19.79-.05.22c.18.2.36.4.56.58l.03.03c.4.35.82.65 1.28.9l.02.01c.29.16.6.3.9.4l.08.03.06-.57.01-.07.02-.19.02-.15.04-.25a3.15 3.15 0 0 1 .05-.34l.04-.18v-.01l.01-.1a2.18 2.18 0 0 1 .06-.24l.06-.22c.08-.24.17-.42.27-.47l.66-1.02.03-.05.01-.01h-.02z" opacity=".1"/>
      <path fill="#F1D2D7" d="M5.71 8.92L5.01 10c-.1.05-.2.22-.27.46l-.06.23c-.1.42-.17.83-.22 1.26V12a29 29 0 0 0-.09.76c-.3-.1-.61-.24-.9-.4h-.02a6.55 6.55 0 0 1-1.28-.9l-.03-.04a6.1 6.1 0 0 1-.62-.65l.03-.15.18-.78a9.45 9.45 0 0 1 .34-1.11c.34-.87.58-.83.58-.83l1.6-.25 1-.17-.02.02c-.12.08-.21.18-.28.3l-.03.05-.03.05c-.06.11-.1.22-.14.34-.03.1-.02.19.03.27.1.19.37.3.59.35h.04l.3.06z"/>
      <path fill="#000" d="M11.26 10.85l-.04-.85c.16-1.34-.17-1.42-.17-1.42l-.4-.2h-.01l-1.6-.77-.07-.04h-.02l-.2-.1-.14-.07-.25-.12-.08-.04v.33a23.15 23.15 0 0 0 .24 2.6l.07.63c.04.68.02 1.36-.07 2.04l.1-.03a6.43 6.43 0 0 0 1.92-1.04l.02-.01c.25-.2.48-.4.7-.63v-.28z" opacity=".1"/>
      <path fill="#F1D2D7" d="M11.34 10.85L11.3 10c.17-1.34-.17-1.43-.17-1.43l-.48-.23-1.62-.78-.07-.03-.01-.01-.12-.06-.16-.08-.3-.14V7.54l.01.36a22.52 22.52 0 0 0 .23 2.27l.06.62c.05.67.03 1.35-.06 2.02a6.43 6.43 0 0 0 1.94-1.04l.01-.01a6.4 6.4 0 0 0 .78-.72v-.19z"/>
      <path fill="#000" d="M5.93 3.8c.3-.05.6-.15.9-.09.25.05.45.22.68.33.22.11.46.18.71.19.09.01.18 0 .26-.05.12-.08.14-.25.12-.4-.06-.4-.32-.76-.58-1.07-.1-.14-.23-.26-.36-.37a1.9 1.9 0 0 0-1.23-.28c-.48.02-.98.12-1.4.36-.29.17-.95.69-.72 1.06.24.4 1.24.39 1.62.33z" opacity=".1"/>
      <path fill="#444176" d="M5.93 3.71c.3-.05.6-.16.9-.1.25.06.45.22.68.34.22.1.46.17.71.18.09.02.18 0 .26-.05.12-.08.14-.25.12-.4-.06-.4-.32-.75-.58-1.07-.1-.14-.23-.26-.36-.37a1.9 1.9 0 0 0-1.23-.27c-.48.02-.98.11-1.4.36-.29.16-.95.68-.72 1.06.24.4 1.24.38 1.62.32z"/>
    </g>
    <path fill="url(#d)" fill-rule="nonzero" d="M59.4 60.32h.02c.02.7.12 1.31.31 1.49.46.4 2.35-.41 2.22-.91l-.12-.49c.5-.06.94-.2 1.12-.5l.33 1 .02.07h.02c.22 2.02.71 6.2 1.1 6.77.53.74 1.13 3.97 1.13 3.97l1.12 6.6s.44 3.81.7 4.23c.07.07.17.12.28.14-.15.45-.37.97-.63 1.26-.52.58-1.2 1.73-1.81 1.65-.61-.08-.78 1.16.34 1.32.62.1 1.62-.02 2.38-.13 0 .33.24.7.83.8 1.12.16 3.46-.33 3.46-.33s1.99-.83 2.08-1.41a18.1 18.1 0 0 0-.41-3c.31-.5-.03-4.77-.03-4.77l-.6-8.18s.34-4.54 0-5.37c-.22-.51-.3-2.88-.33-4.57l.42.03a.76.76 0 0 0 .06-.1l.1.01s.53-.57.1-1.48c-.33-.68-.26-3.73-.21-5.25l.06-.72a.2.2 0 0 0 .05-.08c.81-.1 1.6-.34 2.34-.7.22-.08.43-.2.61-.36.43-.41.17-2.9-.7-6.61-.86-3.72-1.64-3.39-1.64-3.39s-2.07-.16-3.03-1.4c-.95-1.24-1.59-1.23-1.59-1.23a6.92 6.92 0 0 1-.05-.46l-.01-.15c.32-.3.57-.67.72-1.07.2-.1.43-.14.62-.27l.13-.12c.18-.17.3-.4.33-.65a2.6 2.6 0 0 0-.04-.8c-.06-.4-.16-.8-.4-1.12-.23-.3-.58-.5-.92-.67l-2.75-1.4c-.18-.1-.38-.18-.6-.2-.36-.03-.7.22-1 .46a4.23 4.23 0 0 0-.58.55 2.5 2.5 0 0 0-.34 1.9c.04.18.15.23.28.23-.2.37-.3.78-.3 1.19.01.92.5 1.78 1.29 2.27v.17c0 .21 0 .42-.02.63 0 0-2.3 1.23-2.56 1.8-.26.58-1.21 1-1.21 1s-1.82.9-1.82 4.13l-.95 4.54-.18 8.68.32-.25a8 8 0 0 0-.05 1.17v.08zm11.63 22.46l-.15.51-.09-.5.24-.01z"/>
    <path fill="#53526B" fill-rule="nonzero" d="M67.88 81.3s-.36 1.53-.9 2.13c-.54.6-1.24 1.78-1.87 1.7-.62-.09-.8 1.19.36 1.36 1.16.17 3.57-.34 3.57-.34s2.05-.85 2.14-1.45c.09-.59-.53-3.65-.53-3.65l-2.77.25z"/>
    <path fill="#000" fill-rule="nonzero" d="M67.88 81.3s-.36 1.53-.9 2.13c-.54.6-1.24 1.78-1.87 1.7-.62-.09-.8 1.19.36 1.36 1.16.17 3.57-.34 3.57-.34s2.05-.85 2.14-1.45c.09-.59-.53-3.65-.53-3.65l-2.77.25z" opacity=".05"/>
    <path fill="#53526B" fill-rule="nonzero" d="M72.26 82.4s-.36 1.53-.9 2.12c-.54.6-1.25 1.79-1.87 1.7-.62-.08-.8 1.2.36 1.36 1.16.17 3.57-.34 3.57-.34s2.05-.85 2.14-1.44c.1-.6-.53-3.66-.53-3.66l-2.77.26z"/>
    <path fill="#5F5D7E" fill-rule="nonzero" d="M63.52 59.14s.6 6.8 1.05 7.5c.45.72.97 3.8.97 3.8l.97 6.32s.37 3.63.6 4.03c.22.4 2.99.22 2.99.22L68.37 60.1l-4.85-.95z"/>
    <path fill="#000" fill-rule="nonzero" d="M63.52 59.14s.6 6.8 1.05 7.5c.45.72.97 3.8.97 3.8l.97 6.32s.37 3.63.6 4.03c.22.4 2.99.22 2.99.22L68.37 60.1l-4.85-.95z" opacity=".05"/>
    <path fill="#5F5D7E" fill-rule="nonzero" d="M61.33 55.86l.23.7 1.2 3.86.03.07a106.61 106.61 0 0 1 4.45 1.11c.34.18.77 6.36.77 6.36s.25 5.83.43 6.26c.17.43.86 9.27 1.28 9.01.43-.25 3.5 0 3.5 0 .35-.34 0-4.98 0-4.98l-.6-8.5s.34-4.71 0-5.57c-.34-.86-.34-6.6-.34-6.6l-7-1.1-.68-.11-3.27-.51z"/>
    <path fill="#000" fill-rule="nonzero" d="M61.33 56.11l1.18 4.03.03.08c.15.03 3.48.86 4.2 1.11h.07l-1.86-5.32-.05-.15-.6.04-2.97.21z" opacity=".02"/>
    <path fill="#000" fill-rule="nonzero" d="M71.34 39.43s-3.18 3.26-5.15.57l-1.9 1.22.35 1.88-1.12 14.2s2.92-.08 4.98.57c1.18.4 2.48.11 3.35-.73l-.34-12.49.78-3.83-.95-1.4z" opacity=".1"/>
    <path fill="#53526B" fill-rule="nonzero" d="M71.34 39.43s-3.18 3.26-5.15.57l-1.9 1.22.35 1.88-1.12 14.2s2.92-.08 4.98.57c1.18.4 2.48.11 3.35-.73l-.34-12.49.78-3.83-.95-1.4z"/>
    <g fill="#E82127" fill-rule="nonzero">
      <path d="M64.5 54.97v.3h-.17v-.2h-.6v.2h-.18v-.3h.95"/>
      <path d="M64.35 55.04h-.64c-.1-.03-.16-.14-.18-.27h1c-.03.13-.1.24-.18.27"/>
      <g>
        <path d="M70.18 54.77c-.02.05-.09.09-.18.1h-.28v.4h-.17v-.4h-.28c-.09-.01-.16-.05-.18-.1h1.09"/>
      </g>
    </g>
    <path fill="#D6DBE6" fill-rule="nonzero" d="M62.43 55.86s0 1.95-.42 2.78c-.42.83-2.87.38-2.87.38l.5-2.78 2.79-.38z"/>
    <path fill="#FDC2CC" fill-rule="nonzero" d="M59.42 60.15c.39.34 2.02-.35 1.9-.76l-.5-1.9-.11-.42s-.96-.27-1.3 0c-.12.1-.2.5-.24.97-.07.82 0 1.89.25 2.1zM63.52 41.63l3.03 2.18s4.49-.24 3.37-2.26a7.17 7.17 0 0 1-.87-3.96s-4.15-3.55-3.63.48c.04.31.06.62.07.94.06 3.02-1.97 2.62-1.97 2.62z"/>
    <path fill="#000" fill-rule="nonzero" d="M65.75 38.06c.04.31.06.62.07.93.41.29.9.44 1.4.44.7 0 1.2-.7 1.66-1.17-.05-.66.12-.68.12-.68s-3.7-3.53-3.25.48z" opacity=".1"/>
    <circle cx="67.36" cy="35.6" r="2.74" fill="#FDC2CC" fill-rule="nonzero"/>
    <path fill="#000" fill-rule="nonzero" d="M70.1 38.33s.44.04 1.33 1.26c.9 1.2 2.85 1.37 2.85 1.37s.73-.32 1.54 3.31c.82 3.64 1.06 6.06.65 6.47-.4.4-2.03.97-2.85.97 0 0-.24 5.09.17 5.98.4.89-.09 1.45-.09 1.45l-3.57-.24s-1.22-1.53-1.46-4.2c-.25-2.67-1.06-10.27-.65-11.15.4-.9 2.2-3.16 2.11-3.4-.08-.24-.04-1.82-.04-1.82z" opacity=".1"/>
    <path fill="#D6DBE6" fill-rule="nonzero" d="M69.94 38.33s.6-.01 1.5 1.2c.89 1.22 2.84 1.38 2.84 1.38s.73-.32 1.54 3.32c.82 3.65 1.06 6.08.65 6.49-.4.4-2.03.97-2.84.97 0 0-.25 5.1.16 6 .4.89-.08 1.45-.08 1.45l-3.58-.24s-1.22-1.54-1.46-4.21c-.24-2.68-1.06-10.3-.65-11.18.4-.89 2.2-3.16 2.11-3.4-.08-.25-.2-1.78-.2-1.78z"/>
    <path fill="#000" fill-rule="nonzero" d="M59.14 58.05c.24-.25.69-.65 1.1-.56l-.07-.42s-.64-.27-.86 0c-.08.1-.14.5-.17.98zM65.33 38.33s-2.12 1.38-2.37 1.96c-.25.58-1.16 1-1.16 1s-1.74.91-1.74 4.16l-.92 4.58 4.15 5.83s.5-5.83.75-7.25c.25-1.41.58-4.07.58-4.07s1.25-1.58 1.08-2c-.17-.42-.37-4.2-.37-4.2z" opacity=".1"/>
    <path fill="#D6DBE6" fill-rule="nonzero" d="M65.42 38.33s-2.15 1.2-2.4 1.77c-.23.56-1.13.97-1.13.97s-1.7.89-1.7 4.04l-.89 4.45-.16 8.49s1.46-1.38 2.51-.73c1.05.65 1.7-2.1 1.7-2.1s.49-5.66.73-7.04c.24-1.37.57-3.96.57-3.96s1.21-1.53 1.05-1.94c-.16-.4-.28-3.95-.28-3.95z"/>
    <path fill="#000" fill-rule="nonzero" d="M65.02 32.78c.14-.19.31-.36.5-.51.3-.26.62-.53.99-.5.2.02.4.1.58.21.92.5 1.83 1.02 2.74 1.53.33.19.68.4.91.73.24.34.33.78.4 1.21.05.3.06.6.04.89-.03.29-.17.55-.38.74-.24.19-.58.19-.78.43-.12.14-.17.34-.26.51-.08.17-.23.34-.4.31-.16-.03-.26-.22-.28-.4-.02-.2 0-.38.03-.57.03-.34-.01-.7-.2-.95-.13-.17-.32-.27-.44-.45-.3-.42-.16-1.13-.5-1.53a.76.76 0 0 0-.75-.22c-.26.05-.5.2-.75.33-.33.18-.68.32-1.04.42-.3.09-.65.3-.75-.12a2.9 2.9 0 0 1 .34-2.06z" opacity=".1"/>
    <path fill="#865A61" fill-rule="nonzero" d="M65.02 32.78c.14-.19.31-.36.5-.51.3-.26.62-.53.99-.5.2.02.4.1.58.21.91.5 1.67.03 2.74 1.53.22.32.68.4.91.73.24.34.33.78.4 1.21.05.3.06.6.04.89-.03.29-.17.55-.38.74-.24.19-.58.19-.78.43-.12.14-.17.34-.26.51-.08.17-.23.34-.4.31-.16-.03-.26-.22-.28-.4-.02-.2 0-.38.03-.57.03-.34-.01-.7-.2-.95-.13-.17-.31-.27-.44-.45-.3-.42-.16-1.13-.5-1.53a.76.76 0 0 0-.75-.22c-.26.05-.5.2-.75.33-.33.18-.68.32-1.04.42-.3.09-.65.3-.75-.12a2.9 2.9 0 0 1 .34-2.06z"/>
    <path fill="#000" fill-rule="nonzero" d="M71.99 46s.56 2.33.14 3.29l-.94-.35s.85.41.72-.4C71.8 47.7 72 46 72 46zM73.38 51.77s-2.57.14-3.28-.3c.93.6 2.03.97 3.2 1.1l.08-.8zM62.43 47.1s-1.17 3.67-1.1 4.23c.09.56.24 6.72.24 6.72l.24-.08-.08-6.72.7-4.15z" opacity=".1"/>
    <path fill="url(#e)" fill-rule="nonzero" d="M73.97 50.8L45.99 28.28a1.75 1.75 0 0 0-1.24-.52h-1.2a15.14 15.14 0 0 0-1.9-20.67c-6-5.3-15.11-5.03-20.78.63a15.14 15.14 0 0 0-.64 20.76c5.31 6 14.38 6.84 20.7 1.9v1.2c0 .46.18.9.51 1.23l27.98 22.53a1.74 1.74 0 0 0 2.48 0l2.06-2.06c.69-.68.69-1.79 0-2.48zM31.59 27.76a9.34 9.34 0 1 1-.01-18.67 9.34 9.34 0 0 1 0 18.68z"/>
    <path fill="#00C4B1" fill-rule="nonzero" d="M73.97 50.8L45.99 28.28a1.75 1.75 0 0 0-1.24-.52h-1.2a15.14 15.14 0 0 0-1.9-20.67c-6-5.3-15.11-5.03-20.78.63a15.14 15.14 0 0 0-.64 20.76c5.31 6 14.38 6.84 20.7 1.9v1.2c0 .46.18.9.51 1.23l27.98 22.53a1.74 1.74 0 0 0 2.48 0l2.06-2.06c.69-.68.69-1.79 0-2.48zM31.59 27.76a9.34 9.34 0 1 1-.01-18.67 9.34 9.34 0 0 1 0 18.68z"/>
    <path fill="#FDC2CC" fill-rule="nonzero" d="M72.29 50s-3.77-5.24-3.24-1.65c.38 2.56 1.8 3.93 2.48 4.2.68.28.76-2.55.76-2.55z"/>
    <path fill="#D6DBE6" fill-rule="nonzero" d="M73.01 46s.09 3.07.53 3.48c.44.42-.26.91-.26.91l-1.77-.41s.44 2.73-1.41 2.4c0 0 1.23 1.08 2.47 1.25 1.24.16 1.15-.25 1.15-.25l1.85-2.07L73.01 46z"/>
    <path fill="#D6DBE6" fill-rule="nonzero" d="M74.16 51.48l1.41-.26-.19-.55-.87-.29-1.13.44z"/>
    <path fill="#C0BCCF" fill-rule="nonzero" d="M23 17.52a6.54 6.54 0 0 0 2.52 5.18l.02.01a6.42 6.42 0 0 0 1.94 1.05l.1.03.16.05h.02l.08.03c.57.15 1.15.23 1.73.23l.3-.01a6.38 6.38 0 0 0 1.8-.34h.01l.08-.03c.32-.1.62-.24.91-.4h.02c.03-.03.06-.04.1-.06.42-.24.82-.53 1.19-.86l.03-.03c.2-.18.39-.37.56-.58l.02-.02.05-.06.12-.15A6.57 6.57 0 1 0 23 17.52z"/>
    <path fill="url(#f)" fill-rule="nonzero" d="M27.4 20.6s1.68-.13 2.44-1.06c.75-.92 1.26-.93 1.28-.93l.04-.34v-.02a.24.24 0 0 1-.1.04c-.15.02-.28-.1-.36-.23a1.78 1.78 0 0 0-.22-.4c-.19-.18-.5-.19-.71-.33a.83.83 0 0 1-.34-.57 2.44 2.44 0 0 1 .03-.78c.06-.33.15-.67.36-.93.2-.26.62-.32.82-.56.96-1.16 1.64-.79 2.46-1.18.16-.09.34-.14.53-.17.32-.01.62.2.88.4.17.1.33.24.46.4.23.28.37.77.36 1.2 0 .16-.02.32-.06.48-.06.23-.24.21-.43.16.5.92.15 2.03-.8 2.6v.13l.01.48c.02 0 1.85.92 2.06 1.36.2.43.98.74.98.74s.84.4 1.24 1.66l-.02.02c-.2.22-.42.42-.66.61l-.04.03a7.73 7.73 0 0 1-1.5.96h-.03c-.34.17-.7.32-1.06.43l-.1.03h-.01l-.32.1h-.01a8.43 8.43 0 0 1-4.15.03l-.1-.02-.03-.01a4.22 4.22 0 0 1-.19-.05l-.1-.03a8.13 8.13 0 0 1-2.29-1.1l-.02-.01a7.33 7.33 0 0 1-1.41-1.3c.6-2.05 1.12-1.84 1.12-1.84z"/>
    <path fill="#FDC2CC" fill-rule="nonzero" d="M32.53 23l2.52-1.87s-1.7.35-1.64-2.25v-.02c0-.24.02-.5.06-.78.43-3.46-3.03-.41-3.03-.41.03.3.03.61 0 .92v.02a6.25 6.25 0 0 1-.72 2.45c-.94 1.73 2.8 1.94 2.8 1.94z"/>
    <path fill="#000" fill-rule="nonzero" d="M30.9 17.74c.3.31.5.88.95.88.34 0 .66-.1.94-.3 0-.18.02-.38.04-.6.31-2.7-2.16-.32-2.16-.32s.26-.1.23.34z" opacity=".1"/>
    <circle cx="31.21" cy="15.88" r="1.64" fill="#FDC2CC" fill-rule="nonzero"/>
    <path fill="#000" fill-rule="nonzero" d="M34.72 14a2.4 2.4 0 0 0-.42-.44c-.25-.21-.52-.44-.83-.42a1.2 1.2 0 0 0-.48.19c-.77.42-1.4.02-2.28 1.27-.19.27-.57.33-.76.61-.2.28-.28.65-.33 1-.05.25-.06.5-.04.75.03.24.14.46.32.61.2.16.48.16.65.36.09.14.16.28.21.43.07.14.2.28.33.26.14-.02.22-.18.24-.33.01-.16 0-.32-.02-.47-.03-.28 0-.59.16-.8.1-.14.26-.23.37-.37.25-.35.13-.95.4-1.28.17-.17.41-.24.64-.18.22.07.43.16.63.28.27.15.56.27.86.35.25.07.54.25.62-.1.14-.53.01-1.3-.27-1.72z" opacity=".1"/>
    <path fill="#865A61" fill-rule="nonzero" d="M33.72 14a2.4 2.4 0 0 0-.42-.44c-.25-.21-.52-.44-.83-.42a1.2 1.2 0 0 0-.48.19c-.77.42-1.4.02-2.28 1.27-.19.27-.57.33-.76.61-.2.28-.28.65-.33 1-.05.25-.06.5-.04.75.03.24.14.46.32.61.2.16.48.16.65.36.09.14.16.28.21.43.07.14.2.28.33.26.14-.02.22-.18.24-.33.01-.16 0-.32-.02-.47-.03-.28 0-.59.16-.8.1-.14.26-.23.37-.37.25-.35.13-.95.4-1.28.17-.17.41-.24.64-.18.22.07.43.16.63.28.27.15.56.27.86.35.25.07.54.25.62-.1.14-.53.01-1.3-.27-1.72z"/>
    <path fill="#000" fill-rule="nonzero" d="M30.2 23.15l-.04 1.77c.67.18 1.36.27 2.05.27h.35a7.72 7.72 0 0 0 1.81-.3h.02l.32-.1h.01l.1-.04c.37-.13.73-.3 1.08-.48l.02-.01.12-.07-.18-2.38.28-1.63-1.55-1.07c-.09.13-.19.25-.3.36-.15.16-.33.3-.53.4-1.11.54-2.38-.33-3.01-.87l-.14-.13-.26-.25-.78 1.2.63 3.33z" opacity=".1"/>
    <path fill="#53526B" fill-rule="nonzero" d="M30.2 23.15l-.04 1.77c.67.18 1.36.27 2.05.27h.35a7.72 7.72 0 0 0 1.81-.3h.02l.32-.1h.01l.1-.04c.37-.13.73-.3 1.08-.48l.02-.01.12-.07-.18-2.38.28-1.63-1.55-1.07c-.09.13-.19.25-.3.36-.15.16-.33.3-.53.4-1.11.54-2.38-.33-3.01-.87l-.14-.13-.26-.25-.78 1.2.63 3.33z"/>
    <path fill="#555388" fill-rule="nonzero" d="M26.29 22.44a6.9 6.9 0 0 0 1.41 1.29l.02.01a7.72 7.72 0 0 0 2.28 1.1l.1.03.2.05h.02l.1.03a8.5 8.5 0 0 0 2.02.24h.34c.1-1.3.12-2.34-.02-2.6-.08-.16-.18-.3-.28-.45-.56-.8-1.58-2.01-1.53-2.16l.05-.23c.06-.4.12-1.13.12-1.13-.03 0-.53.01-1.28.92-.76.93-2.43 1.06-2.43 1.06s-.51-.2-1.12 1.84zM33.52 23.72l.14 1.47.08-.03c.26-.13.52-.3.77-.48l.02-.01.08-.06c.36-.29.7-.63 1.01-1.02l.03-.03c.17-.21.33-.44.48-.69l.01-.02c-.29-1.42-.9-1.86-.9-1.86s-.56-.35-.7-.84c-.16-.5-1.5-1.53-1.5-1.53a92.3 92.3 0 0 1-.13 3.1c0 .1-.02.21-.04.32-.1.34.65 1.68.65 1.68z"/>
  </g>
</svg>
